export default {"glyphs":{"0":{"ha":990,"x_min":0,"x_max":0,"o":"m 49 488 b 496 -10 49 168 207 -10 b 942 488 782 -10 942 168 b 496 983 942 807 782 983 b 49 488 207 983 49 807 z m 379 488 b 496 750 379 685 408 750 b 611 488 582 750 611 685 b 496 224 611 290 582 224 b 379 488 408 224 379 290 z "},"1":{"ha":604,"x_min":0,"x_max":0,"o":"m 3 719 l 172 719 l 172 0 l 494 0 l 494 974 l 3 974 z "},"2":{"ha":847,"x_min":0,"x_max":0,"o":"m 15 835 l 135 603 b 399 728 229 679 325 728 b 463 676 440 728 463 710 b 392 553 463 643 431 594 l 54 201 l 54 0 l 814 0 l 814 247 l 464 247 l 611 394 b 800 724 719 503 800 611 b 449 988 800 882 649 988 b 15 835 296 988 154 931 z "},"3":{"ha":799,"x_min":0,"x_max":0,"o":"m -10 115 b 383 -14 85 38 238 -14 b 772 310 619 -14 772 119 b 560 579 772 456 682 550 l 518 589 l 728 790 l 728 971 l 42 971 l 42 738 l 365 738 l 181 561 l 181 393 l 357 393 b 457 308 424 393 457 365 b 357 224 457 251 424 224 b 118 360 272 224 192 269 z "},"4":{"ha":922,"x_min":0,"x_max":0,"o":"m 35 188 l 493 188 l 493 0 l 792 0 l 792 188 l 915 188 l 915 418 l 792 418 l 792 604 l 493 604 l 493 418 l 361 418 l 626 974 l 319 974 l 35 399 z "},"5":{"ha":849,"x_min":0,"x_max":0,"o":"m 4 115 b 406 -14 111 38 268 -14 b 818 332 656 -14 818 122 b 431 624 818 510 665 624 l 388 624 l 388 726 l 772 726 l 772 974 l 93 974 l 93 389 l 367 389 b 471 310 436 389 471 363 b 367 224 471 253 436 224 b 132 360 281 224 201 269 z "},"6":{"ha":900,"x_min":0,"x_max":0,"o":"m 49 476 b 490 -14 49 178 215 -14 b 872 329 719 -14 872 119 b 557 650 872 519 747 650 b 356 578 463 650 397 618 b 544 740 356 686 419 740 b 739 676 621 740 686 719 l 861 901 b 525 988 776 954 644 988 b 49 476 236 988 49 786 z m 383 329 b 481 417 383 388 417 417 b 574 331 543 417 574 388 b 479 242 574 271 542 242 b 383 329 415 242 383 271 z "},"7":{"ha":857,"x_min":0,"x_max":0,"o":"m 40 726 l 324 590 l 324 726 l 490 726 l 169 0 l 510 0 l 844 758 l 844 974 l 40 974 z "},"8":{"ha":911,"x_min":0,"x_max":0,"o":"m 35 271 b 456 -14 35 99 200 -14 b 876 276 711 -14 876 100 b 721 521 876 378 815 474 b 824 715 783 565 824 642 b 454 988 824 881 679 988 b 88 725 232 988 88 885 b 207 521 88 651 135 571 b 35 271 103 474 35 375 z m 339 304 b 456 394 339 364 378 394 b 574 304 533 394 574 364 b 456 217 574 246 533 217 b 339 304 378 217 339 246 z m 357 699 b 456 778 357 751 390 778 b 554 699 521 778 554 751 b 456 624 554 649 521 624 b 357 699 390 624 357 649 z "},"9":{"ha":900,"x_min":0,"x_max":0,"o":"m 28 644 b 343 324 28 454 153 324 b 544 396 438 324 503 356 b 356 233 544 288 481 233 b 161 297 279 233 214 254 l 39 72 b 375 -14 124 19 256 -14 b 851 497 664 -14 851 188 b 410 988 851 796 685 988 b 28 644 181 988 28 854 z m 326 643 b 421 732 326 703 358 732 b 517 644 485 732 517 703 b 419 557 517 586 483 557 b 326 643 357 557 326 586 z "}," ":{"ha":290,"x_min":0,"x_max":0,"o":""},"!":{"ha":408,"x_min":0,"x_max":0,"o":"m 56 132 b 197 -11 56 47 114 -11 b 340 132 282 -11 340 47 b 197 274 340 215 282 274 b 56 132 114 274 56 215 z m 56 718 l 111 358 l 297 358 l 353 718 l 353 974 l 56 974 z "},"\"":{"ha":707,"x_min":0,"x_max":0,"o":"m 83 554 l 317 554 l 317 974 l 83 974 z m 390 554 l 624 554 l 624 974 l 390 974 z "},"#":{"ha":1035,"x_min":0,"x_max":0,"o":"m 6 192 l 186 192 l 163 0 l 385 0 l 408 192 l 554 192 l 531 0 l 753 0 l 776 192 l 957 192 l 983 404 l 803 404 l 822 557 l 1004 557 l 1029 769 l 849 769 l 874 974 l 651 974 l 626 769 l 481 769 l 506 974 l 283 974 l 258 769 l 78 769 l 53 557 l 232 557 l 213 404 l 32 404 z m 435 404 l 454 557 l 600 557 l 581 404 z "},"$":{"ha":922,"x_min":0,"x_max":0,"o":"m 11 146 b 338 7 100 78 218 29 l 338 -229 l 568 -229 l 568 -7 b 908 303 757 13 908 110 b 404 701 908 656 404 579 b 464 742 404 731 428 742 b 799 628 549 742 700 682 l 915 872 b 568 983 824 931 697 972 l 568 1200 l 338 1200 l 338 969 b 75 671 174 929 75 822 b 579 286 75 329 579 413 b 501 236 579 251 549 236 b 131 388 403 236 231 304 z "},"%":{"ha":1483,"x_min":0,"x_max":0,"o":"m 35 682 b 319 382 35 500 147 382 b 603 682 492 382 603 500 b 319 979 603 863 492 979 b 35 682 147 979 35 863 z m 231 682 b 319 815 231 763 265 815 b 408 682 374 815 408 763 b 319 547 408 600 374 547 b 231 682 265 547 231 600 z m 258 0 l 549 0 l 1225 974 l 935 974 z m 881 293 b 1165 -7 881 111 993 -7 b 1449 293 1338 -7 1449 111 b 1165 590 1449 474 1338 590 b 881 293 993 590 881 474 z m 1076 293 b 1165 426 1076 374 1111 426 b 1254 293 1219 426 1254 374 b 1165 158 1254 211 1219 158 b 1076 293 1111 158 1076 211 z "},"&":{"ha":981,"x_min":0,"x_max":0,"o":"m 74 278 b 428 -14 74 107 222 -14 b 688 65 522 -14 610 14 l 814 -56 l 971 96 l 838 219 b 915 376 869 267 896 318 l 719 517 b 671 381 708 467 692 421 b 567 489 631 421 596 457 b 788 756 679 546 788 618 b 481 988 788 892 660 988 b 181 739 296 988 181 893 b 251 531 181 671 199 610 b 74 278 156 475 74 403 z m 328 301 b 372 382 328 333 344 358 b 526 222 415 336 465 283 b 440 201 499 208 469 201 b 328 301 375 201 328 240 z m 422 740 b 483 815 422 785 444 815 b 544 753 519 815 544 790 b 454 635 544 703 507 667 b 422 740 431 675 422 708 z "},"'":{"ha":400,"x_min":0,"x_max":0,"o":"m 83 554 l 317 554 l 317 974 l 83 974 z "},"(":{"ha":514,"x_min":0,"x_max":0,"o":"m 65 429 b 250 -172 65 207 131 -6 l 529 -172 b 358 429 428 -6 358 207 b 529 1031 358 651 428 864 l 250 1031 b 65 429 131 864 65 651 z "},")":{"ha":514,"x_min":0,"x_max":0,"o":"m -15 -172 l 264 -172 b 449 429 383 -6 449 207 b 264 1031 449 651 383 864 l -15 1031 b 156 429 86 864 156 651 b -15 -172 156 207 86 -6 z "},"*":{"ha":564,"x_min":0,"x_max":0,"o":"m 28 689 l 104 558 l 210 622 l 206 499 l 358 499 l 354 621 l 460 556 l 536 689 l 426 749 l 536 806 l 460 938 l 356 875 l 358 997 l 206 997 l 208 875 l 104 940 l 28 806 l 136 749 z "},"+":{"ha":722,"x_min":0,"x_max":0,"o":"m 42 360 l 264 360 l 264 138 l 458 138 l 458 360 l 681 360 l 681 554 l 458 554 l 458 776 l 264 776 l 264 554 l 42 554 z "},",":{"ha":368,"x_min":0,"x_max":0,"o":"m 25 -153 l 169 -153 l 290 22 b 328 133 313 54 328 90 b 186 274 328 225 261 274 b 43 132 103 274 43 215 b 97 24 43 89 60 49 z "},"-":{"ha":528,"x_min":0,"x_max":0,"o":"m 69 332 l 458 332 l 458 526 l 69 526 z "},".":{"ha":368,"x_min":0,"x_max":0,"o":"m 42 132 b 183 -11 42 47 100 -11 b 326 132 268 -11 326 47 b 183 274 326 215 268 274 b 42 132 100 274 42 215 z "},"/":{"ha":518,"x_min":0,"x_max":0,"o":"m -69 -144 l 192 -144 l 649 1119 l 388 1119 z "},":":{"ha":368,"x_min":0,"x_max":0,"o":"m 42 132 b 183 -11 42 47 100 -11 b 326 132 268 -11 326 47 b 183 274 326 215 268 274 b 42 132 100 274 42 215 z m 42 544 b 183 401 42 460 100 401 b 326 544 268 401 326 460 b 183 686 326 628 268 686 b 42 544 100 686 42 628 z "},";":{"ha":368,"x_min":0,"x_max":0,"o":"m 25 -153 l 169 -153 l 290 22 b 328 133 313 54 328 90 b 186 274 328 225 261 274 b 43 132 103 274 43 215 b 97 24 43 89 60 49 z m 42 544 b 183 401 42 460 100 401 b 326 544 268 401 326 460 b 183 686 326 628 268 686 b 42 544 100 686 42 628 z "},"<":{"ha":722,"x_min":0,"x_max":0,"o":"m 42 325 l 681 68 l 681 285 l 242 449 l 681 613 l 681 829 l 42 572 z "},"=":{"ha":722,"x_min":0,"x_max":0,"o":"m 42 207 l 681 207 l 681 401 l 42 401 z m 42 513 l 681 513 l 681 707 l 42 707 z "},">":{"ha":722,"x_min":0,"x_max":0,"o":"m 42 82 l 681 339 l 681 586 l 42 843 l 42 626 l 481 463 l 42 299 z "},"?":{"ha":692,"x_min":0,"x_max":0,"o":"m 1 632 l 240 632 b 315 742 240 707 264 742 b 376 683 357 742 376 724 b 224 347 376 576 224 554 l 456 347 b 664 735 456 493 664 533 b 344 988 664 894 546 988 b 1 632 128 988 1 856 z m 193 132 b 335 -11 193 47 251 -11 b 478 132 419 -11 478 47 b 335 274 478 215 419 274 b 193 132 251 274 193 215 z "},"@":{"ha":1201,"x_min":0,"x_max":0,"o":"m 21 372 b 593 -201 21 43 268 -201 b 919 -96 701 -201 839 -161 l 849 24 b 593 -64 771 -37 671 -64 b 171 372 354 -64 171 124 b 610 832 171 625 368 832 b 1032 379 881 832 1032 632 b 932 169 1032 256 981 169 b 890 231 907 169 890 183 l 890 682 l 703 682 l 703 625 b 543 699 703 625 643 699 b 276 376 379 699 276 550 b 564 60 276 185 419 60 b 747 158 628 60 696 86 l 750 149 b 914 46 771 76 831 46 b 1181 383 1068 46 1181 179 b 610 969 1181 721 935 969 b 21 372 283 969 21 707 z m 482 383 b 582 526 482 460 521 526 b 690 382 651 526 690 461 b 583 228 690 299 653 228 b 482 383 519 228 482 301 z "},"A":{"ha":1110,"x_min":0,"x_max":0,"o":"m -14 0 l 317 0 l 367 138 l 732 138 l 781 0 l 1124 0 l 728 974 l 397 974 z m 450 368 l 553 653 l 653 368 z "},"B":{"ha":1006,"x_min":0,"x_max":0,"o":"m 69 0 l 586 0 b 978 274 824 0 978 107 b 785 519 978 396 901 493 b 949 728 885 550 949 632 b 563 974 949 876 797 974 l 69 974 z m 390 236 l 390 385 l 544 385 b 643 314 604 385 643 357 b 544 236 643 267 604 236 z m 390 599 l 390 738 l 544 738 b 618 669 589 738 618 711 b 544 599 618 626 589 599 z "},"C":{"ha":956,"x_min":0,"x_max":0,"o":"m 21 489 b 536 -14 21 199 238 -14 b 960 181 686 -14 851 63 l 774 379 b 553 268 710 311 622 268 b 351 493 436 268 351 363 b 553 715 351 622 436 715 b 774 585 628 715 715 664 l 960 806 b 549 983 860 914 697 983 b 21 489 243 983 21 775 z "},"D":{"ha":1054,"x_min":0,"x_max":0,"o":"m 69 0 l 492 0 b 1033 488 821 0 1033 192 b 504 974 1033 783 825 974 l 69 974 z m 392 250 l 392 724 l 497 724 b 704 485 622 724 704 629 b 513 250 704 342 629 250 z "},"E":{"ha":958,"x_min":0,"x_max":0,"o":"m 69 0 l 906 0 l 906 244 l 392 244 l 392 365 l 847 365 l 847 610 l 392 610 l 392 729 l 893 729 l 893 974 l 69 974 z "},"F":{"ha":876,"x_min":0,"x_max":0,"o":"m 69 0 l 392 0 l 392 317 l 824 317 l 824 561 l 392 561 l 392 729 l 853 729 l 853 974 l 69 974 z "},"G":{"ha":1025,"x_min":0,"x_max":0,"o":"m 21 486 b 549 -14 21 197 243 -14 b 975 111 688 -14 867 39 l 975 513 l 699 513 l 699 286 b 571 254 651 267 604 254 b 351 486 444 254 351 351 b 568 715 351 618 443 715 b 808 613 649 715 743 675 l 990 833 b 569 983 886 925 721 983 b 21 486 251 983 21 774 z "},"H":{"ha":1085,"x_min":0,"x_max":0,"o":"m 69 0 l 392 0 l 392 351 l 693 351 l 693 0 l 1015 0 l 1015 974 l 693 974 l 693 596 l 392 596 l 392 974 l 69 974 z "},"I":{"ha":461,"x_min":0,"x_max":0,"o":"m 69 0 l 392 0 l 392 974 l 69 974 z "},"J":{"ha":790,"x_min":0,"x_max":0,"o":"m -11 156 b 368 -14 88 47 211 -14 b 735 329 592 -14 735 111 l 735 974 l 411 974 l 411 336 b 338 254 411 281 382 254 b 135 364 289 254 211 288 z "},"K":{"ha":1074,"x_min":0,"x_max":0,"o":"m 69 0 l 392 0 l 392 229 l 486 335 l 689 0 l 1074 0 l 706 582 l 1053 974 l 682 974 l 392 636 l 392 974 l 69 974 z "},"L":{"ha":811,"x_min":0,"x_max":0,"o":"m 69 0 l 797 0 l 797 268 l 392 268 l 392 974 l 69 974 z "},"M":{"ha":1244,"x_min":0,"x_max":0,"o":"m 69 0 l 350 0 l 350 533 l 517 94 l 728 94 l 894 533 l 894 0 l 1175 0 l 1175 974 l 835 974 l 622 465 l 410 974 l 69 974 z "},"N":{"ha":1085,"x_min":0,"x_max":0,"o":"m 69 0 l 363 0 l 363 497 l 746 0 l 1015 0 l 1015 974 l 724 974 l 724 474 l 339 974 l 69 974 z "},"O":{"ha":1111,"x_min":0,"x_max":0,"o":"m 21 488 b 556 -14 21 197 246 -14 b 1090 488 865 -14 1090 199 b 556 983 1090 775 865 983 b 21 488 246 983 21 776 z m 351 486 b 560 715 351 619 447 715 b 760 486 671 715 760 619 b 560 254 760 353 671 254 b 351 486 449 254 351 353 z "},"P":{"ha":953,"x_min":0,"x_max":0,"o":"m 69 0 l 392 0 l 392 253 l 526 253 b 925 625 779 253 925 389 b 526 974 925 847 779 974 l 69 974 z m 392 497 l 392 729 l 510 729 b 619 615 579 729 619 688 b 510 497 619 540 579 497 z "},"Q":{"ha":1107,"x_min":0,"x_max":0,"o":"m 21 488 b 517 -12 21 210 228 4 b 835 -246 568 -154 688 -246 b 1132 -137 936 -246 1057 -203 l 1025 53 b 869 -14 969 13 908 -14 b 789 32 838 -14 810 4 b 1090 488 972 108 1090 278 b 556 983 1090 775 865 983 b 21 488 246 983 21 776 z m 351 486 b 560 715 351 619 447 715 b 760 486 671 715 760 619 b 560 254 760 353 671 254 b 351 486 449 254 351 353 z "},"R":{"ha":1007,"x_min":0,"x_max":0,"o":"m 69 0 l 392 0 l 392 253 l 513 253 l 629 0 l 993 0 l 801 317 b 956 625 901 378 956 483 b 540 974 956 847 804 974 l 69 974 z m 392 497 l 392 729 l 540 729 b 650 615 610 729 650 688 b 540 497 650 540 610 497 z "},"S":{"ha":922,"x_min":0,"x_max":0,"o":"m 11 146 b 499 -10 140 47 329 -10 b 908 303 718 -10 908 86 b 404 701 908 656 404 579 b 464 742 404 731 428 742 b 799 628 549 742 700 682 l 915 872 b 492 988 806 942 646 988 b 75 671 239 988 75 865 b 579 286 75 329 579 413 b 501 236 579 251 549 236 b 131 388 403 236 231 304 z "},"T":{"ha":890,"x_min":0,"x_max":0,"o":"m 7 719 l 283 719 l 283 0 l 606 0 l 606 719 l 883 719 l 883 974 l 7 974 z "},"U":{"ha":1046,"x_min":0,"x_max":0,"o":"m 56 413 b 526 -14 56 154 243 -14 b 990 413 808 -14 990 154 l 990 974 l 668 974 l 668 413 b 528 254 668 315 607 254 b 378 413 447 254 378 317 l 378 974 l 56 974 z "},"V":{"ha":1061,"x_min":0,"x_max":0,"o":"m -7 974 l 363 0 l 696 0 l 1068 974 l 739 974 l 539 335 l 338 974 z "},"W":{"ha":1557,"x_min":0,"x_max":0,"o":"m -7 974 l 308 0 l 640 0 l 779 582 l 914 0 l 1246 0 l 1564 974 l 1235 974 l 1090 335 l 943 974 l 629 972 l 485 335 l 338 974 z "},"X":{"ha":1074,"x_min":0,"x_max":0,"o":"m -7 0 l 369 0 l 531 251 l 694 0 l 1081 0 l 736 510 l 1051 974 l 672 974 l 531 744 l 389 974 l 14 974 l 335 494 z "},"Y":{"ha":999,"x_min":0,"x_max":0,"o":"m -14 974 l 342 296 l 342 0 l 664 0 l 664 303 l 1013 974 l 692 974 l 503 599 l 307 974 z "},"Z":{"ha":949,"x_min":0,"x_max":0,"o":"m 28 0 l 921 0 l 921 247 l 457 247 l 911 772 l 911 974 l 44 974 l 44 726 l 482 726 l 28 201 z "},"[":{"ha":524,"x_min":0,"x_max":0,"o":"m 69 -172 l 510 -172 l 510 58 l 347 58 l 347 800 l 510 800 l 510 1031 l 69 1031 z "},"\\":{"ha":518,"x_min":0,"x_max":0,"o":"m -131 1119 l 326 -144 l 588 -144 l 131 1119 z "},"]":{"ha":551,"x_min":0,"x_max":0,"o":"m 42 58 l 42 -172 l 482 -172 l 482 1031 l 42 1031 l 42 800 l 204 800 l 204 58 z "},"^":{"ha":844,"x_min":0,"x_max":0,"o":"m 42 199 l 258 199 l 422 561 l 586 199 l 803 199 l 546 726 l 299 726 z "},"_":{"ha":832,"x_min":0,"x_max":0,"o":"m 0 -117 l 0 -283 l 832 -283 l 832 -117 z "},"`":{"ha":486,"x_min":0,"x_max":0,"o":"m 38 1000 l 228 821 l 450 821 l 301 1083 z "},"a":{"ha":851,"x_min":0,"x_max":0,"o":"m 21 225 b 275 -14 21 81 114 -14 b 489 82 372 -14 444 21 l 489 0 l 796 0 l 796 492 b 446 774 796 671 665 774 b 71 700 333 774 200 747 l 140 492 b 371 540 226 524 314 540 b 489 457 447 540 488 510 l 315 457 b 21 225 122 454 21 375 z m 314 251 b 381 313 314 292 338 313 l 489 313 l 489 243 b 383 185 464 206 424 185 b 314 251 339 185 314 210 z "},"b":{"ha":958,"x_min":0,"x_max":0,"o":"m 83 0 l 396 0 l 396 78 b 597 -11 446 21 515 -11 b 938 375 804 -11 938 140 b 589 771 938 615 800 771 b 396 683 511 771 444 740 l 396 1031 l 83 1031 z m 396 383 b 508 531 396 472 440 531 b 622 383 578 531 622 472 b 508 236 622 294 578 236 b 396 383 440 236 396 294 z "},"c":{"ha":779,"x_min":0,"x_max":0,"o":"m 21 376 b 419 -11 21 142 178 -11 b 782 201 593 -11 726 67 l 529 318 b 436 236 513 261 481 236 b 336 378 375 236 336 292 b 436 518 336 463 375 518 b 533 446 481 518 514 492 l 782 551 b 422 771 719 690 588 771 b 21 376 179 771 21 615 z "},"d":{"ha":958,"x_min":0,"x_max":0,"o":"m 21 385 b 369 -11 21 144 158 -11 b 563 76 447 -11 514 19 l 563 0 l 875 0 l 875 1031 l 563 1031 l 563 682 b 361 771 513 739 443 771 b 21 385 154 771 21 619 z m 336 376 b 450 524 336 465 381 524 b 563 376 518 524 563 465 b 450 229 563 288 518 229 b 336 376 381 229 336 288 z "},"e":{"ha":853,"x_min":0,"x_max":0,"o":"m 21 376 b 435 -11 21 142 175 -11 b 779 128 582 -11 699 39 l 617 288 b 463 219 569 243 515 219 b 336 310 401 219 357 250 l 831 310 b 426 771 847 590 692 771 b 21 376 182 771 21 617 z m 329 454 b 429 563 342 518 375 563 b 518 454 483 563 522 517 z "},"f":{"ha":592,"x_min":0,"x_max":0,"o":"m 28 521 l 132 521 l 132 0 l 443 0 l 443 521 l 590 521 l 590 718 l 443 718 l 443 739 b 515 803 443 779 471 804 b 592 776 538 803 568 793 l 696 990 b 447 1044 632 1024 533 1044 b 132 786 256 1046 132 944 l 132 718 l 28 718 z "},"g":{"ha":908,"x_min":0,"x_max":0,"o":"m 21 413 b 333 46 21 189 154 46 b 524 126 413 46 478 75 l 524 54 b 382 -42 524 -4 474 -42 b 150 25 308 -42 217 -17 l 51 -185 b 410 -283 131 -237 264 -283 b 835 63 661 -283 835 -149 l 835 760 l 524 760 l 524 689 b 328 771 476 742 410 771 b 21 413 149 771 21 631 z m 313 404 b 418 542 313 488 354 542 b 524 404 482 542 524 488 b 418 268 524 322 482 268 b 313 404 354 268 313 322 z "},"h":{"ha":954,"x_min":0,"x_max":0,"o":"m 83 0 l 396 0 l 396 376 b 496 499 396 450 435 499 b 586 394 550 499 586 458 l 586 0 l 899 0 l 899 485 b 626 774 899 660 786 774 b 396 651 526 774 447 729 l 396 1031 l 83 1031 z "},"i":{"ha":465,"x_min":0,"x_max":0,"o":"m 75 976 b 233 818 75 883 140 818 b 392 976 326 818 392 883 b 233 1135 392 1069 326 1135 b 75 976 140 1135 75 1069 z m 76 0 l 389 0 l 389 760 l 76 760 z "},"j":{"ha":483,"x_min":0,"x_max":0,"o":"m -124 -235 b 94 -282 -64 -265 11 -282 b 396 -24 278 -283 396 -183 l 396 760 l 83 760 l 83 24 b 22 -40 83 -19 61 -42 b -54 -21 -3 -40 -28 -33 z m 68 976 b 239 818 68 883 139 818 b 410 976 340 818 410 883 b 239 1135 410 1069 340 1135 b 68 976 139 1135 68 1069 z "},"k":{"ha":919,"x_min":0,"x_max":0,"o":"m 83 0 l 396 0 l 396 200 l 433 239 l 550 0 l 921 0 l 649 467 l 925 760 l 572 760 l 396 563 l 396 1031 l 83 1031 z "},"l":{"ha":479,"x_min":0,"x_max":0,"o":"m 83 0 l 396 0 l 396 1031 l 83 1031 z "},"m":{"ha":1433,"x_min":0,"x_max":0,"o":"m 76 0 l 389 0 l 389 376 b 485 499 389 450 426 499 b 571 394 536 499 571 458 l 571 0 l 883 0 l 883 376 b 979 499 883 450 921 499 b 1065 394 1031 499 1065 458 l 1065 0 l 1378 0 l 1378 485 b 1110 774 1378 660 1267 774 b 861 611 996 774 910 714 b 615 774 821 713 731 774 b 389 653 517 774 440 729 l 389 760 l 76 760 z "},"n":{"ha":947,"x_min":0,"x_max":0,"o":"m 76 0 l 389 0 l 389 376 b 489 499 389 450 428 499 b 579 394 543 499 579 458 l 579 0 l 892 0 l 892 485 b 619 774 892 660 779 774 b 389 651 519 774 440 729 l 389 760 l 76 760 z "},"o":{"ha":900,"x_min":0,"x_max":0,"o":"m 21 381 b 450 -11 21 143 189 -11 b 879 381 711 -11 879 143 b 450 771 879 618 711 771 b 21 381 189 771 21 618 z m 336 376 b 450 524 336 465 381 524 b 564 376 519 524 564 465 b 450 229 564 288 519 229 b 336 376 381 229 336 288 z "},"p":{"ha":958,"x_min":0,"x_max":0,"o":"m 83 -269 l 396 -269 l 396 78 b 597 -11 446 21 515 -11 b 938 375 804 -11 938 140 b 589 771 938 615 800 771 b 396 683 511 771 444 740 l 396 760 l 83 760 z m 396 383 b 508 531 396 472 440 531 b 622 383 578 531 622 472 b 508 236 622 294 578 236 b 396 383 440 236 396 294 z "},"q":{"ha":958,"x_min":0,"x_max":0,"o":"m 21 385 b 369 -11 21 144 158 -11 b 563 76 447 -11 514 19 l 563 -269 l 875 -269 l 875 760 l 563 760 l 563 682 b 361 771 513 739 443 771 b 21 385 154 771 21 619 z m 336 376 b 450 524 336 465 381 524 b 563 376 518 524 563 465 b 450 229 563 288 518 229 b 336 376 381 229 336 288 z "},"r":{"ha":635,"x_min":0,"x_max":0,"o":"m 76 0 l 389 0 l 389 363 b 621 492 389 463 481 513 l 621 774 b 389 649 522 774 442 728 l 389 760 l 76 760 z "},"s":{"ha":767,"x_min":0,"x_max":0,"o":"m 17 94 b 388 -14 122 22 247 -14 b 732 244 597 -14 732 88 b 338 543 732 500 338 472 b 381 568 338 558 354 568 b 638 485 439 568 525 540 l 740 678 b 388 774 626 742 508 774 b 53 511 185 774 53 671 b 439 217 53 254 439 283 b 392 194 439 203 421 194 b 111 289 307 194 213 226 z "},"t":{"ha":639,"x_min":0,"x_max":0,"o":"m 11 521 l 115 521 l 115 244 b 401 -14 115 86 228 -15 b 618 33 482 -14 568 4 l 565 247 b 488 228 536 236 506 228 b 426 292 450 226 426 251 l 426 521 l 604 521 l 604 718 l 426 718 l 426 931 l 115 931 l 115 718 l 11 718 z "},"u":{"ha":933,"x_min":0,"x_max":0,"o":"m 56 275 b 321 -14 56 100 165 -14 b 544 106 418 -14 494 29 l 544 0 l 857 0 l 857 760 l 544 760 l 544 383 b 451 261 544 310 508 261 b 368 365 401 261 368 301 l 368 760 l 56 760 z "},"v":{"ha":850,"x_min":0,"x_max":0,"o":"m -14 760 l 264 0 l 583 0 l 864 760 l 551 760 l 428 283 l 307 760 z "},"w":{"ha":1357,"x_min":0,"x_max":0,"o":"m -14 760 l 261 0 l 567 0 l 679 400 l 788 0 l 1093 0 l 1371 760 l 1069 760 l 950 307 l 829 760 l 540 760 l 424 307 l 303 760 z "},"x":{"ha":908,"x_min":0,"x_max":0,"o":"m -7 0 l 336 0 l 454 197 l 556 0 l 915 0 l 663 390 l 899 760 l 557 760 l 454 582 l 367 760 l 8 760 l 244 389 z "},"y":{"ha":867,"x_min":0,"x_max":0,"o":"m -28 -194 b 235 -283 54 -256 135 -283 b 568 -53 397 -283 504 -211 l 881 760 l 569 760 l 446 326 l 296 760 l -25 760 l 290 24 l 279 6 b 204 -33 264 -21 240 -33 b 103 11 167 -33 136 -19 z "},"z":{"ha":789,"x_min":0,"x_max":0,"o":"m 35 0 l 760 0 l 760 233 l 429 233 l 746 578 l 746 760 l 49 760 l 49 526 l 351 526 l 35 182 z "},"{":{"ha":529,"x_min":0,"x_max":0,"o":"m 19 311 l 82 311 b 125 264 114 311 125 300 l 125 38 b 393 -175 125 -122 192 -175 l 515 -175 l 515 54 b 403 136 422 54 403 75 l 403 243 b 269 429 403 354 368 406 b 403 615 368 453 403 504 l 403 722 b 515 804 403 783 422 804 l 515 1033 l 393 1033 b 125 821 192 1033 125 981 l 125 594 b 82 547 125 558 114 547 l 19 547 z "},"|":{"ha":453,"x_min":0,"x_max":0,"o":"m 111 -143 l 342 -143 l 342 1106 l 111 1106 z "},"}":{"ha":529,"x_min":0,"x_max":0,"o":"m 14 54 l 14 -175 l 136 -175 b 404 38 338 -175 404 -122 l 404 264 b 447 311 404 300 415 311 l 510 311 l 510 547 l 447 547 b 404 594 415 547 404 558 l 404 821 b 136 1033 404 981 338 1033 l 14 1033 l 14 804 b 126 722 107 804 126 783 l 126 615 b 260 429 126 504 161 453 b 126 243 161 406 126 354 l 126 136 b 14 54 126 75 107 54 z "},"~":{"ha":722,"x_min":0,"x_max":0,"o":"m 65 318 l 272 318 b 308 375 272 357 283 375 b 481 314 344 375 385 314 b 657 593 601 314 657 403 l 451 593 b 415 536 451 554 440 536 b 243 597 379 536 339 597 b 65 318 122 597 65 508 z "}," ":{"ha":290,"x_min":0,"x_max":0,"o":""},"¡":{"ha":408,"x_min":0,"x_max":0,"o":"m 56 40 l 56 -215 l 353 -215 l 353 40 l 297 400 l 111 400 z m 68 626 b 211 485 68 543 126 485 b 353 626 294 485 353 543 b 211 769 353 711 294 769 b 68 626 126 769 68 711 z "},"¢":{"ha":779,"x_min":0,"x_max":0,"o":"m 21 376 b 319 -1 21 176 135 35 l 319 -229 l 550 -229 l 550 6 b 782 201 660 35 742 103 l 529 318 b 436 236 513 261 481 236 b 336 378 375 236 336 292 b 436 518 336 463 375 518 b 533 446 481 518 514 492 l 782 551 b 550 753 736 653 654 722 l 550 992 l 319 992 l 319 761 b 21 376 136 722 21 579 z "},"£":{"ha":786,"x_min":0,"x_max":0,"o":"m 28 0 l 779 0 l 779 240 l 449 240 l 449 367 l 669 367 l 669 578 l 449 578 l 449 638 b 522 719 449 693 474 719 b 683 638 569 719 624 692 l 800 874 b 488 988 719 947 606 988 b 125 644 257 988 125 863 l 125 578 l 28 578 l 28 367 l 125 367 l 125 240 l 28 240 z "},"¤":{"ha":963,"x_min":0,"x_max":0,"o":"m 21 154 l 194 -19 l 339 125 b 481 96 382 107 431 96 b 622 126 531 96 579 107 l 768 -19 l 942 154 l 799 297 b 833 449 821 343 833 394 b 804 590 833 499 822 547 l 942 728 l 768 901 l 633 767 b 481 801 588 789 536 801 b 329 767 426 801 375 789 l 194 901 l 21 728 l 158 590 b 128 449 139 547 128 499 b 163 296 128 394 140 342 z m 371 449 b 481 560 371 510 419 560 b 592 449 542 560 592 510 b 481 339 592 388 542 339 b 371 449 419 339 371 388 z "},"¥":{"ha":971,"x_min":0,"x_max":0,"o":"m -14 974 l 236 496 l 89 496 l 89 383 l 296 383 l 329 319 l 89 319 l 89 206 l 342 206 l 342 0 l 664 0 l 664 206 l 882 206 l 882 319 l 672 319 l 706 383 l 882 383 l 882 496 l 764 496 l 1013 974 l 692 974 l 503 599 l 307 974 z "},"¦":{"ha":453,"x_min":0,"x_max":0,"o":"m 111 -143 l 342 -143 l 342 328 l 111 328 z m 111 635 l 342 635 l 342 1106 l 111 1106 z "},"§":{"ha":814,"x_min":0,"x_max":0,"o":"m 17 -17 b 386 -125 125 -89 258 -125 b 725 114 597 -125 725 -26 b 661 238 725 178 703 203 b 788 428 742 281 788 344 b 378 736 788 671 378 664 b 424 758 378 749 392 758 b 681 675 476 758 565 731 l 774 868 b 421 964 656 932 535 964 b 93 721 218 964 93 863 b 157 599 93 674 103 638 b 31 407 76 556 31 492 b 432 104 31 164 432 171 b 379 83 432 92 418 83 b 101 178 304 83 206 115 z m 314 428 b 381 457 314 446 335 457 b 496 413 440 457 496 439 b 422 385 496 396 472 385 b 314 428 361 385 314 401 z "},"¨":{"ha":486,"x_min":0,"x_max":0,"o":"m -28 969 b 99 843 -28 896 24 843 b 225 969 174 843 225 896 b 99 1097 225 1044 174 1097 b -28 969 24 1097 -28 1044 z m 261 969 b 388 843 261 896 313 843 b 514 969 463 843 514 896 b 388 1097 514 1044 463 1097 b 261 969 313 1097 261 1044 z "},"©":{"ha":982,"x_min":0,"x_max":0,"o":"m 21 483 b 489 13 21 226 225 13 b 961 486 754 13 961 229 b 492 957 961 744 756 957 b 21 483 226 957 21 740 z m 160 483 b 492 818 160 665 304 818 b 822 486 678 818 822 668 b 489 151 822 304 678 151 b 160 483 303 151 160 301 z m 264 485 b 496 260 264 354 361 260 b 686 347 564 260 638 293 l 603 436 b 504 386 574 406 535 386 b 413 488 451 386 413 428 b 504 588 413 546 451 588 b 603 528 538 588 576 564 l 686 628 b 501 708 642 676 568 708 b 264 485 364 708 264 614 z "},"ª":{"ha":556,"x_min":0,"x_max":0,"o":"m 15 772 b 178 626 15 685 75 626 b 311 682 239 626 283 647 l 311 636 l 518 636 l 518 932 b 290 1103 519 1042 433 1103 b 47 1061 219 1103 132 1088 l 94 926 b 240 953 150 943 206 953 b 311 914 283 953 307 939 l 204 914 b 15 772 81 913 15 864 z m 214 789 b 249 821 214 810 226 821 l 311 821 l 311 783 b 251 756 296 765 274 756 b 214 789 226 756 214 768 z "},"«":{"ha":756,"x_min":0,"x_max":0,"o":"m -24 379 l 149 108 l 399 108 l 251 379 l 399 647 l 149 647 z m 336 379 l 508 108 l 758 108 l 611 379 l 758 647 l 508 647 z "},"¬":{"ha":824,"x_min":0,"x_max":0,"o":"m 42 429 l 528 429 l 528 179 l 750 179 l 750 624 l 42 624 z "},"­":{"ha":528,"x_min":0,"x_max":0,"o":"m 69 332 l 458 332 l 458 526 l 69 526 z "},"®":{"ha":982,"x_min":0,"x_max":0,"o":"m 21 483 b 489 13 21 226 225 13 b 961 486 754 13 961 229 b 492 957 961 744 756 957 b 21 483 226 957 21 740 z m 160 483 b 492 818 160 665 304 818 b 822 486 678 818 822 668 b 489 151 822 304 678 151 b 160 483 303 151 160 301 z m 311 293 l 450 293 l 450 401 l 496 401 l 546 293 l 703 293 l 619 429 b 686 563 663 456 686 501 b 507 711 686 657 621 711 l 311 711 z m 450 507 l 450 607 l 507 607 b 554 557 538 607 554 589 b 507 507 554 525 538 507 z "},"¯":{"ha":486,"x_min":0,"x_max":0,"o":"m 35 867 l 451 867 l 451 1072 l 35 1072 z "},"°":{"ha":556,"x_min":0,"x_max":0,"o":"m 119 976 b 288 808 119 883 194 808 b 456 976 381 808 456 883 b 288 1144 456 1069 381 1144 b 119 976 194 1144 119 1069 z m 235 976 b 288 1029 235 1006 258 1029 b 340 976 317 1029 340 1006 b 288 924 340 947 317 924 b 235 976 258 924 235 947 z "},"±":{"ha":722,"x_min":0,"x_max":0,"o":"m 42 -22 l 681 -22 l 681 172 l 42 172 z m 42 479 l 264 479 l 264 268 l 458 268 l 458 479 l 681 479 l 681 664 l 458 664 l 458 875 l 264 875 l 264 664 l 42 664 z "},"²":{"ha":547,"x_min":0,"x_max":0,"o":"m 13 889 l 93 739 b 258 814 153 785 214 814 b 290 792 279 814 290 807 b 250 725 290 774 271 747 l 39 518 l 39 389 l 524 389 l 524 549 l 317 549 l 397 624 b 518 822 467 689 518 753 b 293 982 518 918 421 982 b 13 889 194 982 103 947 z "},"³":{"ha":519,"x_min":0,"x_max":0,"o":"m -1 460 b 251 379 58 411 157 379 b 500 575 403 379 500 461 b 372 738 500 663 444 719 l 346 744 l 472 854 l 472 971 l 31 971 l 31 821 l 228 821 l 119 726 l 119 618 l 233 618 b 288 575 269 618 288 604 b 233 533 288 546 269 533 b 85 618 181 533 131 561 z "},"´":{"ha":486,"x_min":0,"x_max":0,"o":"m 38 821 l 260 821 l 450 1000 l 186 1083 z "},"µ":{"ha":961,"x_min":0,"x_max":0,"o":"m 83 -269 l 396 -269 l 396 -10 b 572 106 471 1 531 43 l 572 0 l 885 0 l 885 760 l 572 760 l 572 383 b 479 261 572 310 536 261 b 396 365 429 261 396 301 l 396 760 l 83 760 z "},"¶":{"ha":947,"x_min":0,"x_max":0,"o":"m -14 713 b 286 407 -14 593 47 407 l 317 407 l 317 -146 l 547 -146 l 547 858 l 647 858 l 647 -146 l 878 -146 l 878 1031 l 346 1031 b -14 713 85 1031 -14 874 z "},"·":{"ha":368,"x_min":0,"x_max":0,"o":"m 42 406 b 183 263 42 321 100 263 b 326 406 268 263 326 321 b 183 547 326 489 268 547 b 42 406 100 547 42 489 z "},"¸":{"ha":486,"x_min":0,"x_max":0,"o":"m 75 -296 b 215 -343 118 -325 174 -343 b 411 -186 335 -343 411 -282 b 319 -71 411 -136 375 -90 l 371 25 l 200 25 l 129 -112 b 181 -106 147 -108 168 -106 b 240 -153 217 -106 240 -124 b 188 -199 240 -181 219 -199 b 131 -171 167 -199 144 -187 z "},"¹":{"ha":397,"x_min":0,"x_max":0,"o":"m 6 808 l 111 808 l 111 389 l 328 389 l 328 974 l 6 974 z "},"º":{"ha":582,"x_min":0,"x_max":0,"o":"m 17 865 b 290 629 17 722 124 629 b 565 865 458 629 565 722 b 290 1101 565 1010 458 1101 b 17 865 124 1101 17 1010 z m 229 863 b 290 942 229 911 253 942 b 351 863 328 942 351 911 b 290 785 351 815 328 785 b 229 863 253 785 229 815 z "},"»":{"ha":756,"x_min":0,"x_max":0,"o":"m -3 108 l 247 108 l 419 376 l 247 647 l -3 647 l 144 376 z m 357 108 l 607 108 l 779 376 l 607 647 l 357 647 l 504 376 z "},"¼":{"ha":1303,"x_min":0,"x_max":0,"o":"m 6 808 l 111 808 l 111 389 l 328 389 l 328 974 l 6 974 z m 115 0 l 406 0 l 1082 974 l 792 974 z m 729 107 l 1018 107 l 1018 0 l 1219 0 l 1219 107 l 1296 107 l 1296 256 l 1219 256 l 1219 361 l 1018 361 l 1018 256 l 950 256 l 1111 585 l 904 585 l 729 243 z "},"½":{"ha":1333,"x_min":0,"x_max":0,"o":"m 6 808 l 111 808 l 111 389 l 328 389 l 328 974 l 6 974 z m 115 0 l 406 0 l 1082 974 l 792 974 z m 799 500 l 879 350 b 1044 425 939 396 1000 425 b 1076 403 1065 425 1076 418 b 1036 336 1076 385 1057 358 l 825 129 l 825 0 l 1310 0 l 1310 160 l 1103 160 l 1183 235 b 1304 433 1253 300 1304 364 b 1079 593 1304 529 1207 593 b 799 500 981 593 889 558 z "},"¾":{"ha":1383,"x_min":0,"x_max":0,"o":"m -1 460 b 251 379 58 411 157 379 b 500 575 403 379 500 461 b 372 738 500 663 444 719 l 346 744 l 472 854 l 472 971 l 31 971 l 31 821 l 228 821 l 119 726 l 119 618 l 233 618 b 288 575 269 618 288 604 b 233 533 288 546 269 533 b 85 618 181 533 131 561 z m 196 0 l 486 0 l 1163 974 l 872 974 z m 810 107 l 1099 107 l 1099 0 l 1300 0 l 1300 107 l 1376 107 l 1376 256 l 1300 256 l 1300 361 l 1099 361 l 1099 256 l 1031 256 l 1192 585 l 985 585 l 810 243 z "},"¿":{"ha":692,"x_min":0,"x_max":0,"o":"m 28 25 b 347 -228 28 -135 146 -228 b 690 128 564 -228 690 -96 l 451 128 b 376 18 451 53 428 18 b 315 76 335 18 315 36 b 468 413 315 183 468 206 l 236 413 b 28 25 236 267 28 226 z m 214 628 b 357 486 214 544 272 486 b 499 628 440 486 499 544 b 357 771 499 713 440 771 b 214 628 272 771 214 713 z "},"À":{"ha":1110,"x_min":0,"x_max":0,"o":"m -14 0 l 317 0 l 367 138 l 732 138 l 781 0 l 1124 0 l 728 974 l 397 974 z m 299 1214 l 489 1035 l 711 1035 l 563 1297 z m 450 368 l 553 653 l 653 368 z "},"Á":{"ha":1110,"x_min":0,"x_max":0,"o":"m -14 0 l 317 0 l 367 138 l 732 138 l 781 0 l 1124 0 l 728 974 l 397 974 z m 410 1035 l 632 1035 l 822 1214 l 558 1297 z m 450 368 l 553 653 l 653 368 z "},"Â":{"ha":1110,"x_min":0,"x_max":0,"o":"m -14 0 l 317 0 l 367 138 l 732 138 l 781 0 l 1124 0 l 728 974 l 397 974 z m 271 1057 l 479 1057 l 556 1171 l 632 1057 l 840 1057 l 672 1282 l 439 1282 z m 450 368 l 553 653 l 653 368 z "},"Ã":{"ha":1110,"x_min":0,"x_max":0,"o":"m -14 0 l 317 0 l 367 138 l 732 138 l 781 0 l 1124 0 l 728 974 l 397 974 z m 286 1067 l 475 1067 b 507 1119 475 1103 485 1119 b 664 1064 540 1119 576 1064 b 825 1317 774 1064 825 1144 l 638 1317 b 604 1265 638 1282 628 1265 b 449 1321 572 1265 535 1321 b 286 1067 339 1321 286 1240 z m 450 368 l 553 653 l 653 368 z "},"Ä":{"ha":1110,"x_min":0,"x_max":0,"o":"m -14 0 l 317 0 l 367 138 l 732 138 l 781 0 l 1124 0 l 728 974 l 397 974 z m 285 1183 b 411 1057 285 1110 336 1057 b 538 1183 486 1057 538 1110 b 411 1311 538 1258 486 1311 b 285 1183 336 1311 285 1258 z m 450 368 l 553 653 l 653 368 z m 574 1183 b 700 1057 574 1110 625 1057 b 826 1183 775 1057 826 1110 b 700 1311 826 1258 775 1311 b 574 1183 625 1311 574 1258 z "},"Å":{"ha":1110,"x_min":0,"x_max":0,"o":"m -14 0 l 317 0 l 367 138 l 732 138 l 781 0 l 1124 0 l 728 974 b 747 1057 740 999 747 1026 b 561 1243 747 1161 665 1243 b 375 1057 457 1243 375 1161 b 396 971 375 1025 382 996 z m 450 368 l 553 653 l 653 368 z m 503 1057 b 561 1115 503 1090 528 1115 b 619 1057 594 1115 619 1090 b 561 999 619 1024 594 999 b 503 1057 528 999 503 1024 z "},"Æ":{"ha":1593,"x_min":0,"x_max":0,"o":"m -14 0 l 319 0 l 403 169 l 704 169 l 704 0 l 1540 0 l 1540 244 l 1026 244 l 1026 365 l 1482 365 l 1482 610 l 1026 610 l 1026 729 l 1528 729 l 1528 974 l 528 974 z m 518 400 l 681 729 l 704 729 l 704 400 z "},"Ç":{"ha":956,"x_min":0,"x_max":0,"o":"m 21 489 b 451 -8 21 226 197 28 l 397 -112 b 449 -106 415 -108 436 -106 b 508 -153 485 -106 508 -124 b 456 -199 508 -181 488 -199 b 399 -171 435 -199 413 -187 l 343 -296 b 483 -343 386 -325 442 -343 b 679 -186 603 -343 679 -282 b 588 -71 679 -136 643 -90 l 622 -6 b 960 181 747 17 872 85 l 774 379 b 553 268 710 311 622 268 b 351 493 436 268 351 363 b 553 715 351 622 436 715 b 774 585 628 715 715 664 l 960 806 b 549 983 860 914 697 983 b 21 489 243 983 21 775 z "},"È":{"ha":958,"x_min":0,"x_max":0,"o":"m 69 0 l 906 0 l 906 244 l 392 244 l 392 365 l 847 365 l 847 610 l 392 610 l 392 729 l 893 729 l 893 974 l 69 974 z m 226 1214 l 417 1035 l 639 1035 l 490 1297 z "},"É":{"ha":958,"x_min":0,"x_max":0,"o":"m 69 0 l 906 0 l 906 244 l 392 244 l 392 365 l 847 365 l 847 610 l 392 610 l 392 729 l 893 729 l 893 974 l 69 974 z m 338 1035 l 560 1035 l 750 1214 l 486 1297 z "},"Ê":{"ha":958,"x_min":0,"x_max":0,"o":"m 69 0 l 906 0 l 906 244 l 392 244 l 392 365 l 847 365 l 847 610 l 392 610 l 392 729 l 893 729 l 893 974 l 69 974 z m 199 1057 l 407 1057 l 483 1171 l 560 1057 l 768 1057 l 600 1282 l 367 1282 z "},"Ë":{"ha":958,"x_min":0,"x_max":0,"o":"m 69 0 l 906 0 l 906 244 l 392 244 l 392 365 l 847 365 l 847 610 l 392 610 l 392 729 l 893 729 l 893 974 l 69 974 z m 213 1183 b 339 1057 213 1110 264 1057 b 465 1183 414 1057 465 1110 b 339 1311 465 1258 414 1311 b 213 1183 264 1311 213 1258 z m 501 1183 b 628 1057 501 1110 553 1057 b 754 1183 703 1057 754 1110 b 628 1311 754 1258 703 1311 b 501 1183 553 1311 501 1258 z "},"Ì":{"ha":461,"x_min":0,"x_max":0,"o":"m -26 1214 l 164 1035 l 386 1035 l 238 1297 z m 69 0 l 392 0 l 392 974 l 69 974 z "},"Í":{"ha":461,"x_min":0,"x_max":0,"o":"m 69 0 l 392 0 l 392 974 l 69 974 z m 85 1035 l 307 1035 l 497 1214 l 233 1297 z "},"Î":{"ha":461,"x_min":0,"x_max":0,"o":"m -54 1057 l 154 1057 l 231 1171 l 307 1057 l 515 1057 l 347 1282 l 114 1282 z m 69 0 l 392 0 l 392 974 l 69 974 z "},"Ï":{"ha":461,"x_min":0,"x_max":0,"o":"m -40 1183 b 86 1057 -40 1110 11 1057 b 213 1183 161 1057 213 1110 b 86 1311 213 1258 161 1311 b -40 1183 11 1311 -40 1258 z m 69 0 l 392 0 l 392 974 l 69 974 z m 249 1183 b 375 1057 249 1110 300 1057 b 501 1183 450 1057 501 1110 b 375 1311 501 1258 450 1311 b 249 1183 300 1311 249 1258 z "},"Ð":{"ha":1114,"x_min":0,"x_max":0,"o":"m 0 404 l 129 404 l 129 0 l 551 0 b 1093 488 881 0 1093 192 b 564 974 1093 783 885 974 l 129 974 l 129 569 l 0 569 z m 451 250 l 451 404 l 622 404 l 622 569 l 451 569 l 451 724 l 557 724 b 764 485 682 724 764 629 b 572 250 764 342 689 250 z "},"Ñ":{"ha":1085,"x_min":0,"x_max":0,"o":"m 69 0 l 363 0 l 363 497 l 746 0 l 1015 0 l 1015 974 l 724 974 l 724 474 l 339 974 l 69 974 z m 274 1067 l 463 1067 b 494 1119 463 1103 472 1119 b 651 1064 528 1119 564 1064 b 813 1317 761 1064 813 1144 l 625 1317 b 592 1265 625 1282 615 1265 b 436 1321 560 1265 522 1321 b 274 1067 326 1321 274 1240 z "},"Ò":{"ha":1111,"x_min":0,"x_max":0,"o":"m 21 488 b 556 -14 21 197 246 -14 b 1090 488 865 -14 1090 199 b 556 983 1090 775 865 983 b 21 488 246 983 21 776 z m 285 1214 l 475 1035 l 697 1035 l 549 1297 z m 351 486 b 560 715 351 619 447 715 b 760 486 671 715 760 619 b 560 254 760 353 671 254 b 351 486 449 254 351 353 z "},"Ó":{"ha":1111,"x_min":0,"x_max":0,"o":"m 21 488 b 556 -14 21 197 246 -14 b 1090 488 865 -14 1090 199 b 556 983 1090 775 865 983 b 21 488 246 983 21 776 z m 351 486 b 560 715 351 619 447 715 b 760 486 671 715 760 619 b 560 254 760 353 671 254 b 351 486 449 254 351 353 z m 396 1035 l 618 1035 l 808 1214 l 544 1297 z "},"Ô":{"ha":1111,"x_min":0,"x_max":0,"o":"m 21 488 b 556 -14 21 197 246 -14 b 1090 488 865 -14 1090 199 b 556 983 1090 775 865 983 b 21 488 246 983 21 776 z m 257 1057 l 465 1057 l 542 1171 l 618 1057 l 826 1057 l 658 1282 l 425 1282 z m 351 486 b 560 715 351 619 447 715 b 760 486 671 715 760 619 b 560 254 760 353 671 254 b 351 486 449 254 351 353 z "},"Õ":{"ha":1111,"x_min":0,"x_max":0,"o":"m 21 488 b 556 -14 21 197 246 -14 b 1090 488 865 -14 1090 199 b 556 983 1090 775 865 983 b 21 488 246 983 21 776 z m 272 1067 l 461 1067 b 493 1119 461 1103 471 1119 b 650 1064 526 1119 563 1064 b 811 1317 760 1064 811 1144 l 624 1317 b 590 1265 624 1282 614 1265 b 435 1321 558 1265 521 1321 b 272 1067 325 1321 272 1240 z m 351 486 b 560 715 351 619 447 715 b 760 486 671 715 760 619 b 560 254 760 353 671 254 b 351 486 449 254 351 353 z "},"Ö":{"ha":1111,"x_min":0,"x_max":0,"o":"m 21 488 b 556 -14 21 197 246 -14 b 1090 488 865 -14 1090 199 b 556 983 1090 775 865 983 b 21 488 246 983 21 776 z m 271 1183 b 397 1057 271 1110 322 1057 b 524 1183 472 1057 524 1110 b 397 1311 524 1258 472 1311 b 271 1183 322 1311 271 1258 z m 351 486 b 560 715 351 619 447 715 b 760 486 671 715 760 619 b 560 254 760 353 671 254 b 351 486 449 254 351 353 z m 560 1183 b 686 1057 560 1110 611 1057 b 813 1183 761 1057 813 1110 b 686 1311 813 1258 761 1311 b 560 1183 611 1311 560 1258 z "},"×":{"ha":722,"x_min":0,"x_max":0,"o":"m 67 300 l 204 163 l 361 319 l 518 163 l 656 300 l 499 457 l 656 614 l 518 751 l 361 594 l 204 751 l 67 614 l 224 457 z "},"Ø":{"ha":1111,"x_min":0,"x_max":0,"o":"m 21 488 b 283 50 21 293 122 133 l 213 -144 l 389 -144 l 440 -4 b 556 -14 476 -10 515 -14 b 1090 488 865 -14 1090 199 b 782 942 1090 699 969 867 l 846 1119 l 669 1119 l 619 981 b 556 983 599 982 578 983 b 21 488 246 983 21 776 z m 351 486 b 522 711 351 604 426 693 l 392 350 b 351 486 367 388 351 433 z m 533 256 l 682 669 b 760 486 729 628 760 564 b 560 254 760 353 671 254 b 533 256 550 254 542 254 z "},"Ù":{"ha":1046,"x_min":0,"x_max":0,"o":"m 56 413 b 526 -14 56 154 243 -14 b 990 413 808 -14 990 154 l 990 974 l 668 974 l 668 413 b 528 254 668 315 607 254 b 378 413 447 254 378 317 l 378 974 l 56 974 z m 267 1214 l 457 1035 l 679 1035 l 531 1297 z "},"Ú":{"ha":1046,"x_min":0,"x_max":0,"o":"m 56 413 b 526 -14 56 154 243 -14 b 990 413 808 -14 990 154 l 990 974 l 668 974 l 668 413 b 528 254 668 315 607 254 b 378 413 447 254 378 317 l 378 974 l 56 974 z m 378 1035 l 600 1035 l 790 1214 l 526 1297 z "},"Û":{"ha":1046,"x_min":0,"x_max":0,"o":"m 56 413 b 526 -14 56 154 243 -14 b 990 413 808 -14 990 154 l 990 974 l 668 974 l 668 413 b 528 254 668 315 607 254 b 378 413 447 254 378 317 l 378 974 l 56 974 z m 239 1057 l 447 1057 l 524 1171 l 600 1057 l 808 1057 l 640 1282 l 407 1282 z "},"Ü":{"ha":1046,"x_min":0,"x_max":0,"o":"m 56 413 b 526 -14 56 154 243 -14 b 990 413 808 -14 990 154 l 990 974 l 668 974 l 668 413 b 528 254 668 315 607 254 b 378 413 447 254 378 317 l 378 974 l 56 974 z m 253 1183 b 379 1057 253 1110 304 1057 b 506 1183 454 1057 506 1110 b 379 1311 506 1258 454 1311 b 253 1183 304 1311 253 1258 z m 542 1183 b 668 1057 542 1110 593 1057 b 794 1183 743 1057 794 1110 b 668 1311 794 1258 743 1311 b 542 1183 593 1311 542 1258 z "},"Ý":{"ha":999,"x_min":0,"x_max":0,"o":"m -14 974 l 342 296 l 342 0 l 664 0 l 664 303 l 1013 974 l 692 974 l 503 599 l 307 974 z m 354 1035 l 576 1035 l 767 1214 l 503 1297 z "},"Þ":{"ha":969,"x_min":0,"x_max":0,"o":"m 69 0 l 392 0 l 392 142 l 531 142 b 942 510 781 142 942 286 b 531 854 942 719 781 854 l 392 854 l 392 974 l 69 974 z m 392 386 l 392 610 l 517 610 b 611 500 574 610 611 567 b 517 386 611 431 574 386 z "},"ß":{"ha":931,"x_min":0,"x_max":0,"o":"m 56 0 l 368 0 l 368 713 b 457 813 368 782 396 813 b 539 713 514 813 539 782 b 433 613 539 643 507 613 l 433 394 l 465 394 b 600 310 558 394 600 368 b 465 219 600 247 558 219 l 433 219 l 433 0 l 499 0 b 903 301 744 0 903 118 b 733 535 903 407 836 499 b 842 760 799 586 842 674 b 451 1044 842 932 689 1044 b 56 689 211 1044 56 906 z "},"à":{"ha":851,"x_min":0,"x_max":0,"o":"m 21 225 b 275 -14 21 81 114 -14 b 489 82 372 -14 444 21 l 489 0 l 796 0 l 796 492 b 446 774 796 671 665 774 b 71 700 333 774 200 747 l 140 492 b 371 540 226 524 314 540 b 489 457 447 540 488 510 l 315 457 b 21 225 122 454 21 375 z m 171 1000 l 361 821 l 583 821 l 435 1083 z m 314 251 b 381 313 314 292 338 313 l 489 313 l 489 243 b 383 185 464 206 424 185 b 314 251 339 185 314 210 z "},"á":{"ha":851,"x_min":0,"x_max":0,"o":"m 21 225 b 275 -14 21 81 114 -14 b 489 82 372 -14 444 21 l 489 0 l 796 0 l 796 492 b 446 774 796 671 665 774 b 71 700 333 774 200 747 l 140 492 b 371 540 226 524 314 540 b 489 457 447 540 488 510 l 315 457 b 21 225 122 454 21 375 z m 282 821 l 504 821 l 694 1000 l 431 1083 z m 314 251 b 381 313 314 292 338 313 l 489 313 l 489 243 b 383 185 464 206 424 185 b 314 251 339 185 314 210 z "},"â":{"ha":851,"x_min":0,"x_max":0,"o":"m 21 225 b 275 -14 21 81 114 -14 b 489 82 372 -14 444 21 l 489 0 l 796 0 l 796 492 b 446 774 796 671 665 774 b 71 700 333 774 200 747 l 140 492 b 371 540 226 524 314 540 b 489 457 447 540 488 510 l 315 457 b 21 225 122 454 21 375 z m 143 843 l 351 843 l 428 957 l 504 843 l 713 843 l 544 1068 l 311 1068 z m 314 251 b 381 313 314 292 338 313 l 489 313 l 489 243 b 383 185 464 206 424 185 b 314 251 339 185 314 210 z "},"ã":{"ha":851,"x_min":0,"x_max":0,"o":"m 21 225 b 275 -14 21 81 114 -14 b 489 82 372 -14 444 21 l 489 0 l 796 0 l 796 492 b 446 774 796 671 665 774 b 71 700 333 774 200 747 l 140 492 b 371 540 226 524 314 540 b 489 457 447 540 488 510 l 315 457 b 21 225 122 454 21 375 z m 158 853 l 347 853 b 379 906 347 889 357 906 b 536 850 413 906 449 850 b 697 1103 646 850 697 931 l 510 1103 b 476 1051 510 1068 500 1051 b 321 1107 444 1051 407 1107 b 158 853 211 1107 158 1026 z m 314 251 b 381 313 314 292 338 313 l 489 313 l 489 243 b 383 185 464 206 424 185 b 314 251 339 185 314 210 z "},"ä":{"ha":851,"x_min":0,"x_max":0,"o":"m 21 225 b 275 -14 21 81 114 -14 b 489 82 372 -14 444 21 l 489 0 l 796 0 l 796 492 b 446 774 796 671 665 774 b 71 700 333 774 200 747 l 140 492 b 371 540 226 524 314 540 b 489 457 447 540 488 510 l 315 457 b 21 225 122 454 21 375 z m 157 969 b 283 843 157 896 208 843 b 410 969 358 843 410 896 b 283 1097 410 1044 358 1097 b 157 969 208 1097 157 1044 z m 314 251 b 381 313 314 292 338 313 l 489 313 l 489 243 b 383 185 464 206 424 185 b 314 251 339 185 314 210 z m 446 969 b 572 843 446 896 497 843 b 699 969 647 843 699 896 b 572 1097 699 1044 647 1097 b 446 969 497 1097 446 1044 z "},"å":{"ha":851,"x_min":0,"x_max":0,"o":"m 21 225 b 275 -14 21 81 114 -14 b 489 82 372 -14 444 21 l 489 0 l 796 0 l 796 492 b 446 774 796 671 665 774 b 71 700 333 774 200 747 l 140 492 b 371 540 226 524 314 540 b 489 457 447 540 488 510 l 315 457 b 21 225 122 454 21 375 z m 256 976 b 428 804 256 881 332 804 b 600 976 524 804 600 881 b 428 1149 600 1072 524 1149 b 256 976 332 1149 256 1072 z m 314 251 b 381 313 314 292 338 313 l 489 313 l 489 243 b 383 185 464 206 424 185 b 314 251 339 185 314 210 z m 374 976 b 428 1031 374 1007 397 1031 b 482 976 458 1031 482 1007 b 428 922 482 946 458 922 b 374 976 397 922 374 946 z "},"æ":{"ha":1331,"x_min":0,"x_max":0,"o":"m 21 225 b 306 -15 21 81 126 -15 b 606 129 447 -15 549 38 b 911 -11 667 40 769 -11 b 1257 128 1060 -11 1176 39 l 1094 288 b 939 219 1047 243 993 219 b 813 310 878 219 833 250 l 1308 310 b 903 771 1325 590 1169 771 b 690 711 818 771 747 750 b 447 774 631 753 549 774 b 71 700 335 774 201 747 l 140 492 b 374 540 226 524 315 540 b 493 457 450 540 492 510 l 317 457 b 21 225 124 454 21 375 z m 314 251 b 382 313 314 292 339 313 l 493 313 l 493 243 b 385 185 467 206 425 185 b 314 251 340 185 314 210 z m 806 454 b 906 563 818 518 851 563 b 996 454 961 563 1000 517 z "},"ç":{"ha":779,"x_min":0,"x_max":0,"o":"m 21 376 b 344 -6 21 167 146 24 l 289 -112 b 340 -106 307 -108 328 -106 b 400 -153 376 -106 400 -124 b 347 -199 400 -181 379 -199 b 290 -171 326 -199 304 -187 l 235 -296 b 375 -343 278 -325 333 -343 b 571 -186 494 -343 571 -282 b 479 -71 571 -136 535 -90 l 515 -3 b 782 201 642 21 738 93 l 529 318 b 436 236 513 261 481 236 b 336 378 375 236 336 292 b 436 518 336 463 375 518 b 533 446 481 518 514 492 l 782 551 b 422 771 719 690 588 771 b 21 376 179 771 21 615 z "},"è":{"ha":853,"x_min":0,"x_max":0,"o":"m 21 376 b 435 -11 21 142 175 -11 b 779 128 582 -11 699 39 l 617 288 b 463 219 569 243 515 219 b 336 310 401 219 357 250 l 831 310 b 426 771 847 590 692 771 b 21 376 182 771 21 617 z m 164 1000 l 354 821 l 576 821 l 428 1083 z m 329 454 b 429 563 342 518 375 563 b 518 454 483 563 522 517 z "},"é":{"ha":853,"x_min":0,"x_max":0,"o":"m 21 376 b 435 -11 21 142 175 -11 b 779 128 582 -11 699 39 l 617 288 b 463 219 569 243 515 219 b 336 310 401 219 357 250 l 831 310 b 426 771 847 590 692 771 b 21 376 182 771 21 617 z m 275 821 l 497 821 l 688 1000 l 424 1083 z m 329 454 b 429 563 342 518 375 563 b 518 454 483 563 522 517 z "},"ê":{"ha":853,"x_min":0,"x_max":0,"o":"m 21 376 b 435 -11 21 142 175 -11 b 779 128 582 -11 699 39 l 617 288 b 463 219 569 243 515 219 b 336 310 401 219 357 250 l 831 310 b 426 771 847 590 692 771 b 21 376 182 771 21 617 z m 136 843 l 344 843 l 421 957 l 497 843 l 706 843 l 538 1068 l 304 1068 z m 329 454 b 429 563 342 518 375 563 b 518 454 483 563 522 517 z "},"ë":{"ha":853,"x_min":0,"x_max":0,"o":"m 21 376 b 435 -11 21 142 175 -11 b 779 128 582 -11 699 39 l 617 288 b 463 219 569 243 515 219 b 336 310 401 219 357 250 l 831 310 b 426 771 847 590 692 771 b 21 376 182 771 21 617 z m 150 969 b 276 843 150 896 201 843 b 403 969 351 843 403 896 b 276 1097 403 1044 351 1097 b 150 969 201 1097 150 1044 z m 329 454 b 429 563 342 518 375 563 b 518 454 483 563 522 517 z m 439 969 b 565 843 439 896 490 843 b 692 969 640 843 692 896 b 565 1097 692 1044 640 1097 b 439 969 490 1097 439 1044 z "},"ì":{"ha":465,"x_min":0,"x_max":0,"o":"m -24 1000 l 167 821 l 389 821 l 240 1083 z m 76 0 l 389 0 l 389 760 l 76 760 z "},"í":{"ha":465,"x_min":0,"x_max":0,"o":"m 76 0 l 389 0 l 389 760 l 76 760 z m 88 821 l 310 821 l 500 1000 l 236 1083 z "},"î":{"ha":465,"x_min":0,"x_max":0,"o":"m -51 843 l 157 843 l 233 957 l 310 843 l 518 843 l 350 1068 l 117 1068 z m 76 0 l 389 0 l 389 760 l 76 760 z "},"ï":{"ha":465,"x_min":0,"x_max":0,"o":"m -37 969 b 89 843 -37 896 14 843 b 215 969 164 843 215 896 b 89 1097 215 1044 164 1097 b -37 969 14 1097 -37 1044 z m 76 0 l 389 0 l 389 760 l 76 760 z m 251 969 b 378 843 251 896 303 843 b 504 969 453 843 504 896 b 378 1097 504 1044 453 1097 b 251 969 303 1097 251 1044 z "},"ð":{"ha":857,"x_min":0,"x_max":0,"o":"m 13 315 b 394 -14 13 115 163 -14 b 836 421 663 -14 836 157 b 689 807 836 563 783 696 l 822 853 l 775 993 l 567 921 b 326 1044 497 972 417 1014 l 117 921 b 293 826 179 894 239 863 l 136 772 l 183 633 l 426 717 b 529 568 475 668 510 618 b 328 622 485 601 406 622 b 13 315 136 622 13 501 z m 311 331 b 404 417 311 383 347 417 b 501 329 464 417 501 382 b 406 242 501 276 464 242 b 311 331 349 242 311 276 z "},"ñ":{"ha":947,"x_min":0,"x_max":0,"o":"m 76 0 l 389 0 l 389 376 b 489 499 389 450 428 499 b 579 394 543 499 579 458 l 579 0 l 892 0 l 892 485 b 619 774 892 660 779 774 b 389 651 519 774 440 729 l 389 760 l 76 760 z m 231 853 l 419 853 b 451 906 419 889 429 906 b 608 850 485 906 521 850 b 769 1103 718 850 769 931 l 582 1103 b 549 1051 582 1068 572 1051 b 393 1107 517 1051 479 1107 b 231 853 283 1107 231 1026 z "},"ò":{"ha":900,"x_min":0,"x_max":0,"o":"m 21 381 b 450 -11 21 143 189 -11 b 879 381 711 -11 879 143 b 450 771 879 618 711 771 b 21 381 189 771 21 618 z m 193 1000 l 383 821 l 606 821 l 457 1083 z m 336 376 b 450 524 336 465 381 524 b 564 376 519 524 564 465 b 450 229 564 288 519 229 b 336 376 381 229 336 288 z "},"ó":{"ha":900,"x_min":0,"x_max":0,"o":"m 21 381 b 450 -11 21 143 189 -11 b 879 381 711 -11 879 143 b 450 771 879 618 711 771 b 21 381 189 771 21 618 z m 304 821 l 526 821 l 717 1000 l 453 1083 z m 336 376 b 450 524 336 465 381 524 b 564 376 519 524 564 465 b 450 229 564 288 519 229 b 336 376 381 229 336 288 z "},"ô":{"ha":900,"x_min":0,"x_max":0,"o":"m 21 381 b 450 -11 21 143 189 -11 b 879 381 711 -11 879 143 b 450 771 879 618 711 771 b 21 381 189 771 21 618 z m 165 843 l 374 843 l 450 957 l 526 843 l 735 843 l 567 1068 l 333 1068 z m 336 376 b 450 524 336 465 381 524 b 564 376 519 524 564 465 b 450 229 564 288 519 229 b 336 376 381 229 336 288 z "},"õ":{"ha":900,"x_min":0,"x_max":0,"o":"m 21 381 b 450 -11 21 143 189 -11 b 879 381 711 -11 879 143 b 450 771 879 618 711 771 b 21 381 189 771 21 618 z m 181 853 l 369 853 b 401 906 369 889 379 906 b 558 850 435 906 471 850 b 719 1103 668 850 719 931 l 532 1103 b 499 1051 532 1068 522 1051 b 343 1107 467 1051 429 1107 b 181 853 233 1107 181 1026 z m 336 376 b 450 524 336 465 381 524 b 564 376 519 524 564 465 b 450 229 564 288 519 229 b 336 376 381 229 336 288 z "},"ö":{"ha":900,"x_min":0,"x_max":0,"o":"m 21 381 b 450 -11 21 143 189 -11 b 879 381 711 -11 879 143 b 450 771 879 618 711 771 b 21 381 189 771 21 618 z m 179 969 b 306 843 179 896 231 843 b 432 969 381 843 432 896 b 306 1097 432 1044 381 1097 b 179 969 231 1097 179 1044 z m 336 376 b 450 524 336 465 381 524 b 564 376 519 524 564 465 b 450 229 564 288 519 229 b 336 376 381 229 336 288 z m 468 969 b 594 843 468 896 519 843 b 721 969 669 843 721 896 b 594 1097 721 1044 669 1097 b 468 969 519 1097 468 1044 z "},"÷":{"ha":722,"x_min":0,"x_max":0,"o":"m 42 360 l 681 360 l 681 554 l 42 554 z m 222 206 b 349 79 222 132 274 79 b 475 206 424 79 475 132 b 349 333 475 281 424 333 b 222 206 274 333 222 281 z m 222 706 b 349 579 222 632 274 579 b 475 706 424 579 475 632 b 349 833 475 781 424 833 b 222 706 274 833 222 781 z "},"ø":{"ha":900,"x_min":0,"x_max":0,"o":"m 21 381 b 272 17 21 203 115 72 l 203 -193 l 325 -193 l 386 -8 b 450 -11 407 -10 428 -11 b 879 381 711 -11 879 143 b 631 742 879 557 786 688 l 696 940 l 574 940 l 517 767 b 450 771 496 769 474 771 b 21 381 189 771 21 618 z m 315 376 b 446 550 315 481 367 547 l 349 254 b 315 376 328 283 315 326 z m 454 203 l 551 499 b 585 376 572 468 585 426 b 454 203 585 272 533 206 z "},"ù":{"ha":933,"x_min":0,"x_max":0,"o":"m 56 275 b 321 -14 56 100 165 -14 b 544 106 418 -14 494 29 l 544 0 l 857 0 l 857 760 l 544 760 l 544 383 b 451 261 544 310 508 261 b 368 365 401 261 368 301 l 368 760 l 56 760 z m 201 1000 l 392 821 l 614 821 l 465 1083 z "},"ú":{"ha":933,"x_min":0,"x_max":0,"o":"m 56 275 b 321 -14 56 100 165 -14 b 544 106 418 -14 494 29 l 544 0 l 857 0 l 857 760 l 544 760 l 544 383 b 451 261 544 310 508 261 b 368 365 401 261 368 301 l 368 760 l 56 760 z m 313 821 l 535 821 l 725 1000 l 461 1083 z "},"û":{"ha":933,"x_min":0,"x_max":0,"o":"m 56 275 b 321 -14 56 100 165 -14 b 544 106 418 -14 494 29 l 544 0 l 857 0 l 857 760 l 544 760 l 544 383 b 451 261 544 310 508 261 b 368 365 401 261 368 301 l 368 760 l 56 760 z m 174 843 l 382 843 l 458 957 l 535 843 l 743 843 l 575 1068 l 342 1068 z "},"ü":{"ha":933,"x_min":0,"x_max":0,"o":"m 56 275 b 321 -14 56 100 165 -14 b 544 106 418 -14 494 29 l 544 0 l 857 0 l 857 760 l 544 760 l 544 383 b 451 261 544 310 508 261 b 368 365 401 261 368 301 l 368 760 l 56 760 z m 188 969 b 314 843 188 896 239 843 b 440 969 389 843 440 896 b 314 1097 440 1044 389 1097 b 188 969 239 1097 188 1044 z m 476 969 b 603 843 476 896 528 843 b 729 969 678 843 729 896 b 603 1097 729 1044 678 1097 b 476 969 528 1097 476 1044 z "},"ý":{"ha":867,"x_min":0,"x_max":0,"o":"m -28 -194 b 235 -283 54 -256 135 -283 b 568 -53 397 -283 504 -211 l 881 760 l 569 760 l 446 326 l 296 760 l -25 760 l 290 24 l 279 6 b 204 -33 264 -21 240 -33 b 103 11 167 -33 136 -19 z m 288 821 l 510 821 l 700 1000 l 436 1083 z "},"þ":{"ha":958,"x_min":0,"x_max":0,"o":"m 83 -269 l 396 -269 l 396 78 b 597 -11 446 21 515 -11 b 938 375 804 -11 938 140 b 589 771 938 615 800 771 b 396 683 511 771 444 740 l 396 1031 l 83 1031 z m 396 383 b 508 531 396 472 440 531 b 622 383 578 531 622 472 b 508 236 622 294 578 236 b 396 383 440 236 396 294 z "},"ÿ":{"ha":867,"x_min":0,"x_max":0,"o":"m -28 -194 b 235 -283 54 -256 135 -283 b 568 -53 397 -283 504 -211 l 881 760 l 569 760 l 446 326 l 296 760 l -25 760 l 290 24 l 279 6 b 204 -33 264 -21 240 -33 b 103 11 167 -33 136 -19 z m 163 969 b 289 843 163 896 214 843 b 415 969 364 843 415 896 b 289 1097 415 1044 364 1097 b 163 969 214 1097 163 1044 z m 451 969 b 578 843 451 896 503 843 b 704 969 653 843 704 896 b 578 1097 704 1044 653 1097 b 451 969 503 1097 451 1044 z "},"Ā":{"ha":1110,"x_min":0,"x_max":0,"o":"m -14 0 l 317 0 l 367 138 l 732 138 l 781 0 l 1124 0 l 728 974 l 397 974 z m 347 1081 l 764 1081 l 764 1286 l 347 1286 z m 450 368 l 553 653 l 653 368 z "},"ā":{"ha":851,"x_min":0,"x_max":0,"o":"m 21 225 b 275 -14 21 81 114 -14 b 489 82 372 -14 444 21 l 489 0 l 796 0 l 796 492 b 446 774 796 671 665 774 b 71 700 333 774 200 747 l 140 492 b 371 540 226 524 314 540 b 489 457 447 540 488 510 l 315 457 b 21 225 122 454 21 375 z m 219 867 l 636 867 l 636 1072 l 219 1072 z m 314 251 b 381 313 314 292 338 313 l 489 313 l 489 243 b 383 185 464 206 424 185 b 314 251 339 185 314 210 z "},"Ă":{"ha":1110,"x_min":0,"x_max":0,"o":"m -14 0 l 317 0 l 367 138 l 732 138 l 781 0 l 1124 0 l 728 974 l 397 974 z m 300 1282 b 556 1040 307 1135 407 1040 b 811 1282 704 1040 804 1135 l 624 1282 b 556 1213 619 1240 593 1213 b 488 1282 518 1213 492 1240 z m 450 368 l 553 653 l 653 368 z "},"ă":{"ha":851,"x_min":0,"x_max":0,"o":"m 21 225 b 275 -14 21 81 114 -14 b 489 82 372 -14 444 21 l 489 0 l 796 0 l 796 492 b 446 774 796 671 665 774 b 71 700 333 774 200 747 l 140 492 b 371 540 226 524 314 540 b 489 457 447 540 488 510 l 315 457 b 21 225 122 454 21 375 z m 172 1068 b 428 826 179 921 279 826 b 683 1068 576 826 676 921 l 496 1068 b 428 999 492 1026 465 999 b 360 1068 390 999 364 1026 z m 314 251 b 381 313 314 292 338 313 l 489 313 l 489 243 b 383 185 464 206 424 185 b 314 251 339 185 314 210 z "},"Ą":{"ha":1110,"x_min":0,"x_max":0,"o":"m -14 0 l 317 0 l 367 138 l 732 138 l 781 0 l 883 0 b 824 -161 850 -50 824 -104 b 957 -283 824 -257 899 -283 b 1124 -178 1025 -283 1085 -249 l 1047 -89 b 996 -131 1032 -115 1014 -131 b 976 -110 985 -131 976 -124 b 1029 0 976 -87 999 -46 l 1124 0 l 728 974 l 397 974 z m 450 368 l 553 653 l 653 368 z "},"ą":{"ha":858,"x_min":0,"x_max":0,"o":"m 21 225 b 278 -15 21 81 115 -15 b 496 83 376 -15 450 21 l 496 0 l 592 0 b 532 -161 558 -50 532 -104 b 665 -283 532 -257 607 -283 b 832 -178 733 -283 793 -249 l 756 -89 b 704 -131 740 -115 722 -131 b 685 -110 693 -131 685 -124 b 738 0 685 -87 707 -46 l 803 0 l 803 492 b 449 774 803 671 671 774 b 71 700 336 774 201 747 l 140 492 b 375 540 228 524 317 540 b 496 458 451 540 493 510 l 496 457 l 318 457 b 21 225 124 454 21 375 z m 314 251 b 383 313 314 292 339 313 l 496 313 l 496 243 b 386 185 469 206 428 185 b 314 251 340 185 314 210 z "},"Ć":{"ha":956,"x_min":0,"x_max":0,"o":"m 21 489 b 536 -14 21 199 238 -14 b 960 181 686 -14 851 63 l 774 379 b 553 268 710 311 622 268 b 351 493 436 268 351 363 b 553 715 351 622 436 715 b 774 585 628 715 715 664 l 960 806 b 549 983 860 914 697 983 b 21 489 243 983 21 775 z m 401 1035 l 624 1035 l 814 1214 l 550 1297 z "},"ć":{"ha":779,"x_min":0,"x_max":0,"o":"m 21 376 b 419 -11 21 142 178 -11 b 782 201 593 -11 726 67 l 529 318 b 436 236 513 261 481 236 b 336 378 375 236 336 292 b 436 518 336 463 375 518 b 533 446 481 518 514 492 l 782 551 b 422 771 719 690 588 771 b 21 376 179 771 21 615 z m 268 821 l 490 821 l 681 1000 l 417 1083 z "},"Č":{"ha":956,"x_min":0,"x_max":0,"o":"m 21 489 b 536 -14 21 199 238 -14 b 960 181 686 -14 851 63 l 774 379 b 553 268 710 311 622 268 b 351 493 436 268 351 363 b 553 715 351 622 436 715 b 774 585 628 715 715 664 l 960 806 b 549 983 860 914 697 983 b 21 489 243 983 21 775 z m 226 1282 l 411 1035 l 667 1035 l 851 1282 l 622 1282 l 539 1157 l 456 1282 z "},"č":{"ha":779,"x_min":0,"x_max":0,"o":"m 21 376 b 419 -11 21 142 178 -11 b 782 201 593 -11 726 67 l 529 318 b 436 236 513 261 481 236 b 336 378 375 236 336 292 b 436 518 336 463 375 518 b 533 446 481 518 514 492 l 782 551 b 422 771 719 690 588 771 b 21 376 179 771 21 615 z m 93 1068 l 278 821 l 533 821 l 718 1068 l 489 1068 l 406 943 l 322 1068 z "},"Ď":{"ha":1054,"x_min":0,"x_max":0,"o":"m 69 0 l 492 0 b 1033 488 821 0 1033 192 b 504 974 1033 783 825 974 l 69 974 z m 168 1282 l 353 1035 l 608 1035 l 793 1282 l 564 1282 l 481 1157 l 397 1282 z m 392 250 l 392 724 l 497 724 b 704 485 622 724 704 629 b 513 250 704 342 629 250 z "},"ď":{"ha":1176,"x_min":0,"x_max":0,"o":"m 21 385 b 369 -11 21 144 158 -11 b 563 76 447 -11 514 19 l 563 0 l 875 0 l 875 1031 l 563 1031 l 563 682 b 361 771 513 739 443 771 b 21 385 154 771 21 619 z m 336 376 b 450 524 336 465 381 524 b 563 376 518 524 563 465 b 450 229 563 288 518 229 b 336 376 381 229 336 288 z m 913 503 l 1057 503 l 1178 678 b 1215 789 1200 710 1215 746 b 1074 929 1215 881 1149 929 b 931 788 990 929 931 871 b 985 679 931 744 947 704 z "},"Đ":{"ha":1054,"x_min":0,"x_max":0,"o":"m 69 0 l 492 0 b 1033 488 821 0 1033 192 b 504 974 1033 783 825 974 l 69 974 z m 281 1081 l 697 1081 l 697 1286 l 281 1286 z m 392 250 l 392 724 l 497 724 b 704 485 622 724 704 629 b 513 250 704 342 629 250 z "},"đ":{"ha":961,"x_min":0,"x_max":0,"o":"m 21 385 b 369 -11 21 144 158 -11 b 563 76 447 -11 514 19 l 563 0 l 875 0 l 875 797 l 961 797 l 961 954 l 875 954 l 875 1031 l 563 1031 l 563 954 l 461 954 l 461 797 l 563 797 l 563 682 b 361 771 513 739 443 771 b 21 385 154 771 21 619 z m 336 376 b 450 524 336 465 381 524 b 563 376 518 524 563 465 b 450 229 563 288 518 229 b 336 376 381 229 336 288 z "},"Ē":{"ha":958,"x_min":0,"x_max":0,"o":"m 69 0 l 906 0 l 906 244 l 392 244 l 392 365 l 847 365 l 847 610 l 392 610 l 392 729 l 893 729 l 893 974 l 69 974 z m 275 1081 l 692 1081 l 692 1286 l 275 1286 z "},"ē":{"ha":853,"x_min":0,"x_max":0,"o":"m 21 376 b 435 -11 21 142 175 -11 b 779 128 582 -11 699 39 l 617 288 b 463 219 569 243 515 219 b 336 310 401 219 357 250 l 831 310 b 426 771 847 590 692 771 b 21 376 182 771 21 617 z m 213 867 l 629 867 l 629 1072 l 213 1072 z m 329 454 b 429 563 342 518 375 563 b 518 454 483 563 522 517 z "},"Ė":{"ha":958,"x_min":0,"x_max":0,"o":"m 69 0 l 906 0 l 906 244 l 392 244 l 392 365 l 847 365 l 847 610 l 392 610 l 392 729 l 893 729 l 893 974 l 69 974 z m 325 1190 b 483 1032 325 1097 390 1032 b 642 1190 576 1032 642 1097 b 483 1349 642 1283 576 1349 b 325 1190 390 1349 325 1283 z "},"ė":{"ha":853,"x_min":0,"x_max":0,"o":"m 21 376 b 435 -11 21 142 175 -11 b 779 128 582 -11 699 39 l 617 288 b 463 219 569 243 515 219 b 336 310 401 219 357 250 l 831 310 b 426 771 847 590 692 771 b 21 376 182 771 21 617 z m 263 976 b 421 818 263 883 328 818 b 579 976 514 818 579 883 b 421 1135 579 1069 514 1135 b 263 976 328 1135 263 1069 z m 329 454 b 429 563 342 518 375 563 b 518 454 483 563 522 517 z "},"Ę":{"ha":958,"x_min":0,"x_max":0,"o":"m 69 0 l 654 0 b 594 -161 621 -50 594 -104 b 728 -283 594 -257 669 -283 b 894 -178 796 -283 856 -249 l 818 -89 b 767 -131 803 -115 785 -131 b 747 -110 756 -131 747 -124 b 800 0 747 -87 769 -46 l 906 0 l 906 244 l 392 244 l 392 365 l 847 365 l 847 610 l 392 610 l 392 729 l 893 729 l 893 974 l 69 974 z "},"ę":{"ha":853,"x_min":0,"x_max":0,"o":"m 21 376 b 435 -11 21 142 175 -11 b 535 7 468 -11 503 -4 b 468 -161 497 -44 468 -103 b 601 -283 468 -257 543 -283 b 767 -178 669 -283 728 -249 l 690 -89 b 640 -131 675 -115 658 -131 b 621 -110 629 -131 621 -124 b 779 128 621 -44 732 76 l 617 288 b 463 219 569 243 515 219 b 336 310 403 219 358 250 l 831 310 b 426 771 847 590 692 771 b 21 376 182 771 21 617 z m 329 454 b 429 563 342 518 376 563 b 518 454 483 563 522 517 z "},"Ě":{"ha":958,"x_min":0,"x_max":0,"o":"m 69 0 l 906 0 l 906 244 l 392 244 l 392 365 l 847 365 l 847 610 l 392 610 l 392 729 l 893 729 l 893 974 l 69 974 z m 163 1282 l 347 1035 l 603 1035 l 788 1282 l 558 1282 l 475 1157 l 392 1282 z "},"ě":{"ha":853,"x_min":0,"x_max":0,"o":"m 21 376 b 435 -11 21 142 175 -11 b 779 128 582 -11 699 39 l 617 288 b 463 219 569 243 515 219 b 336 310 401 219 357 250 l 831 310 b 426 771 847 590 692 771 b 21 376 182 771 21 617 z m 100 1068 l 285 821 l 540 821 l 725 1068 l 496 1068 l 413 943 l 329 1068 z m 329 454 b 429 563 342 518 375 563 b 518 454 483 563 522 517 z "},"Ğ":{"ha":1025,"x_min":0,"x_max":0,"o":"m 21 486 b 549 -14 21 197 243 -14 b 975 111 688 -14 867 39 l 975 513 l 699 513 l 699 286 b 571 254 651 267 604 254 b 351 486 444 254 351 351 b 568 715 351 618 443 715 b 808 613 649 715 743 675 l 990 833 b 569 983 886 925 721 983 b 21 486 251 983 21 774 z m 294 1282 b 550 1040 301 1135 401 1040 b 806 1282 699 1040 799 1135 l 618 1282 b 550 1213 614 1240 588 1213 b 482 1282 513 1213 486 1240 z "},"ğ":{"ha":908,"x_min":0,"x_max":0,"o":"m 21 413 b 333 46 21 189 154 46 b 524 126 413 46 478 75 l 524 54 b 382 -42 524 -4 474 -42 b 150 25 308 -42 217 -17 l 51 -185 b 410 -283 131 -237 264 -283 b 835 63 661 -283 835 -149 l 835 760 l 524 760 l 524 689 b 328 771 476 742 410 771 b 21 413 149 771 21 631 z m 199 1068 b 454 826 206 921 306 826 b 710 1068 603 826 703 921 l 522 1068 b 454 999 518 1026 492 999 b 386 1068 417 999 390 1026 z m 313 404 b 418 542 313 488 354 542 b 524 404 482 542 524 488 b 418 268 524 322 482 268 b 313 404 354 268 313 322 z "},"Ģ":{"ha":1025,"x_min":0,"x_max":0,"o":"m 21 486 b 549 -14 21 197 243 -14 b 975 111 688 -14 867 39 l 975 513 l 699 513 l 699 286 b 571 254 651 267 604 254 b 351 486 444 254 351 351 b 568 715 351 618 443 715 b 808 613 649 715 743 675 l 990 833 b 569 983 886 925 721 983 b 21 486 251 983 21 774 z m 399 -472 l 543 -472 l 664 -297 b 701 -186 686 -265 701 -229 b 560 -46 701 -94 635 -46 b 417 -187 476 -46 417 -104 b 471 -296 417 -231 433 -271 z "},"ģ":{"ha":908,"x_min":0,"x_max":0,"o":"m 21 413 b 333 46 21 189 154 46 b 524 126 413 46 478 75 l 524 54 b 382 -42 524 -4 474 -42 b 150 25 308 -42 217 -17 l 51 -185 b 410 -283 131 -237 264 -283 b 835 63 661 -283 835 -149 l 835 760 l 524 760 l 524 689 b 328 771 476 742 410 771 b 21 413 149 771 21 631 z m 303 946 b 444 806 303 854 369 806 b 588 947 528 806 588 864 b 533 1056 588 990 571 1031 l 606 1232 l 461 1232 l 340 1057 b 303 946 318 1025 303 989 z m 313 404 b 418 542 313 488 354 542 b 524 404 482 542 524 488 b 418 268 524 322 482 268 b 313 404 354 268 313 322 z "},"ħ":{"ha":940,"x_min":0,"x_max":0,"o":"m -22 782 l 83 782 l 83 0 l 396 0 l 396 376 b 496 499 396 450 435 499 b 586 394 550 499 586 458 l 586 0 l 899 0 l 899 485 b 626 774 899 660 786 774 b 396 651 526 774 447 729 l 396 782 l 531 782 l 531 947 l 396 947 l 396 1031 l 83 1031 l 83 947 l -22 947 z "},"Ĩ":{"ha":461,"x_min":0,"x_max":0,"o":"m -39 1067 l 150 1067 b 182 1119 150 1103 160 1119 b 339 1064 215 1119 251 1064 b 500 1317 449 1064 500 1144 l 313 1317 b 279 1265 313 1282 303 1265 b 124 1321 247 1265 210 1321 b -39 1067 14 1321 -39 1240 z m 69 0 l 392 0 l 392 974 l 69 974 z "},"ĩ":{"ha":465,"x_min":0,"x_max":0,"o":"m -36 853 l 153 853 b 185 906 153 889 163 906 b 342 850 218 906 254 850 b 503 1103 451 850 503 931 l 315 1103 b 282 1051 315 1068 306 1051 b 126 1107 250 1051 213 1107 b -36 853 17 1107 -36 1026 z m 76 0 l 389 0 l 389 760 l 76 760 z "},"Ī":{"ha":461,"x_min":0,"x_max":0,"o":"m 22 1081 l 439 1081 l 439 1286 l 22 1286 z m 69 0 l 392 0 l 392 974 l 69 974 z "},"ī":{"ha":465,"x_min":0,"x_max":0,"o":"m 25 867 l 442 867 l 442 1072 l 25 1072 z m 76 0 l 389 0 l 389 760 l 76 760 z "},"Į":{"ha":461,"x_min":0,"x_max":0,"o":"m 69 0 l 175 0 b 115 -161 142 -50 115 -104 b 249 -283 115 -257 190 -283 b 415 -178 317 -283 376 -249 l 339 -89 b 288 -131 324 -115 306 -131 b 268 -110 276 -131 268 -124 b 321 0 268 -87 290 -46 l 392 0 l 392 974 l 69 974 z "},"į":{"ha":432,"x_min":0,"x_max":0,"o":"m 58 976 b 217 818 58 883 124 818 b 375 976 310 818 375 883 b 217 1135 375 1069 310 1135 b 58 976 124 1135 58 1069 z m 60 0 l 149 0 b 89 -161 115 -50 89 -104 b 222 -283 89 -257 164 -283 b 389 -178 290 -283 350 -249 l 313 -89 b 261 -131 297 -115 279 -131 b 242 -110 250 -131 242 -124 b 294 0 242 -87 264 -46 l 372 0 l 372 760 l 60 760 z "},"İ":{"ha":461,"x_min":0,"x_max":0,"o":"m 69 0 l 392 0 l 392 974 l 69 974 z m 72 1190 b 231 1032 72 1097 138 1032 b 389 1190 324 1032 389 1097 b 231 1349 389 1283 324 1349 b 72 1190 138 1349 72 1283 z "},"ı":{"ha":465,"x_min":0,"x_max":0,"o":"m 76 0 l 389 0 l 389 760 l 76 760 z "},"Ĳ":{"ha":1251,"x_min":0,"x_max":0,"o":"m 69 0 l 392 0 l 392 974 l 69 974 z m 450 156 b 829 -14 549 47 672 -14 b 1196 329 1053 -14 1196 111 l 1196 974 l 542 974 l 542 719 l 872 719 l 872 336 b 799 254 872 281 843 254 b 596 364 750 254 672 288 z "},"ĳ":{"ha":949,"x_min":0,"x_max":0,"o":"m 75 976 b 233 818 75 883 140 818 b 392 976 326 818 392 883 b 233 1135 392 1069 326 1135 b 75 976 140 1135 75 1069 z m 76 0 l 389 0 l 389 760 l 76 760 z m 342 -235 b 560 -282 401 -265 476 -282 b 861 -24 743 -283 861 -183 l 861 760 l 549 760 l 549 24 b 488 -40 549 -19 526 -42 b 411 -21 463 -40 438 -33 z m 533 976 b 704 818 533 883 604 818 b 875 976 806 818 875 883 b 704 1135 875 1069 806 1135 b 533 976 604 1135 533 1069 z "},"Ĵ":{"ha":790,"x_min":0,"x_max":0,"o":"m -11 156 b 368 -14 88 47 211 -14 b 735 329 592 -14 735 111 l 735 974 l 81 974 l 81 719 l 411 719 l 411 336 b 338 254 411 281 382 254 b 135 364 289 254 211 288 z m 119 1057 l 328 1057 l 404 1171 l 481 1057 l 689 1057 l 521 1282 l 288 1282 z "},"ĵ":{"ha":469,"x_min":0,"x_max":0,"o":"m -124 -235 b 94 -282 -64 -265 11 -282 b 396 -24 278 -283 396 -183 l 396 760 l 83 760 l 83 24 b 22 -40 83 -19 61 -42 b -54 -21 -3 -40 -28 -33 z m -57 843 l 151 843 l 228 957 l 304 843 l 513 843 l 344 1068 l 111 1068 z "},"Ķ":{"ha":1074,"x_min":0,"x_max":0,"o":"m 69 0 l 392 0 l 392 229 l 486 335 l 689 0 l 1074 0 l 706 582 l 1053 974 l 682 974 l 392 636 l 392 974 l 69 974 z m 367 -472 l 511 -472 l 632 -297 b 669 -186 654 -265 669 -229 b 528 -46 669 -94 603 -46 b 385 -187 444 -46 385 -104 b 439 -296 385 -231 401 -271 z "},"ķ":{"ha":919,"x_min":0,"x_max":0,"o":"m 31 -296 b 171 -343 74 -325 129 -343 b 367 -186 290 -343 367 -282 b 275 -71 367 -136 331 -90 l 313 0 l 396 0 l 396 200 l 433 239 l 550 0 l 921 0 l 649 467 l 925 760 l 572 760 l 396 563 l 396 1031 l 83 1031 l 83 0 l 143 0 l 85 -112 b 136 -106 103 -108 124 -106 b 196 -153 172 -106 196 -124 b 143 -199 196 -181 175 -199 b 86 -171 122 -199 100 -187 z "},"ĸ":{"ha":910,"x_min":0,"x_max":0,"o":"m 76 0 l 389 0 l 389 203 l 424 239 l 540 0 l 911 0 l 639 467 l 915 760 l 563 760 l 389 565 l 389 760 l 76 760 z "},"Ĺ":{"ha":811,"x_min":0,"x_max":0,"o":"m 69 0 l 797 0 l 797 268 l 392 268 l 392 974 l 69 974 z m 75 1035 l 297 1035 l 488 1214 l 224 1297 z "},"ĺ":{"ha":479,"x_min":0,"x_max":0,"o":"m 83 0 l 396 0 l 396 1031 l 83 1031 z m 94 1092 l 317 1092 l 507 1271 l 243 1354 z "},"Ļ":{"ha":811,"x_min":0,"x_max":0,"o":"m 69 0 l 797 0 l 797 268 l 392 268 l 392 974 l 69 974 z m 254 -472 l 399 -472 l 519 -297 b 557 -186 542 -265 557 -229 b 415 -46 557 -94 490 -46 b 272 -187 332 -46 272 -104 b 326 -296 272 -231 289 -271 z "},"ļ":{"ha":479,"x_min":0,"x_max":0,"o":"m 83 0 l 396 0 l 396 1031 l 83 1031 z m 89 -472 l 233 -472 l 354 -297 b 392 -186 376 -265 392 -229 b 250 -46 392 -94 325 -46 b 107 -187 167 -46 107 -104 b 161 -296 107 -231 124 -271 z "},"Ľ":{"ha":811,"x_min":0,"x_max":0,"o":"m 69 0 l 797 0 l 797 268 l 392 268 l 392 974 l 69 974 z m 482 503 l 626 503 l 747 678 b 785 789 769 710 785 746 b 643 929 785 881 718 929 b 500 788 560 929 500 871 b 554 679 500 744 517 704 z "},"ľ":{"ha":674,"x_min":0,"x_max":0,"o":"m 83 0 l 396 0 l 396 1031 l 83 1031 z m 410 503 l 554 503 l 675 678 b 713 789 697 710 713 746 b 571 929 713 881 646 929 b 428 788 488 929 428 871 b 482 679 428 744 444 704 z "},"Ŀ":{"ha":811,"x_min":0,"x_max":0,"o":"m 69 0 l 797 0 l 797 268 l 392 268 l 392 974 l 69 974 z m 454 690 b 596 547 454 606 513 547 b 739 690 681 547 739 606 b 596 832 739 774 681 832 b 454 690 513 832 454 774 z "},"ŀ":{"ha":621,"x_min":0,"x_max":0,"o":"m 83 0 l 396 0 l 396 406 b 536 294 408 339 463 294 b 678 436 619 294 678 353 b 536 579 678 521 619 579 b 396 467 463 579 408 535 l 396 1031 l 83 1031 z "},"Ł":{"ha":842,"x_min":0,"x_max":0,"o":"m -42 572 l 11 386 l 100 411 l 100 0 l 828 0 l 828 268 l 422 268 l 422 504 l 656 572 l 603 760 l 422 707 l 422 974 l 100 974 l 100 614 z "},"ł":{"ha":518,"x_min":0,"x_max":0,"o":"m -62 589 l -10 403 l 117 439 l 117 0 l 429 0 l 429 529 l 581 572 l 528 760 l 429 731 l 429 1031 l 117 1031 l 117 640 z "},"Ń":{"ha":1085,"x_min":0,"x_max":0,"o":"m 69 0 l 363 0 l 363 497 l 746 0 l 1015 0 l 1015 974 l 724 974 l 724 474 l 339 974 l 69 974 z m 397 1035 l 619 1035 l 810 1214 l 546 1297 z "},"ń":{"ha":947,"x_min":0,"x_max":0,"o":"m 76 0 l 389 0 l 389 376 b 489 499 389 450 428 499 b 579 394 543 499 579 458 l 579 0 l 892 0 l 892 485 b 619 774 892 660 779 774 b 389 651 519 774 440 729 l 389 760 l 76 760 z m 354 821 l 576 821 l 767 1000 l 503 1083 z "},"Ņ":{"ha":1085,"x_min":0,"x_max":0,"o":"m 69 0 l 363 0 l 363 497 l 746 0 l 1015 0 l 1015 974 l 724 974 l 724 474 l 339 974 l 69 974 z m 392 -472 l 536 -472 l 657 -297 b 694 -186 679 -265 694 -229 b 553 -46 694 -94 628 -46 b 410 -187 469 -46 410 -104 b 464 -296 410 -231 426 -271 z "},"ņ":{"ha":947,"x_min":0,"x_max":0,"o":"m 76 0 l 389 0 l 389 376 b 489 499 389 450 428 499 b 579 394 543 499 579 458 l 579 0 l 892 0 l 892 485 b 619 774 892 660 779 774 b 389 651 519 774 440 729 l 389 760 l 76 760 z m 331 -472 l 475 -472 l 596 -297 b 633 -186 618 -265 633 -229 b 492 -46 633 -94 567 -46 b 349 -187 408 -46 349 -104 b 403 -296 349 -231 365 -271 z "},"Ň":{"ha":1085,"x_min":0,"x_max":0,"o":"m 69 0 l 363 0 l 363 497 l 746 0 l 1015 0 l 1015 974 l 724 974 l 724 474 l 339 974 l 69 974 z m 222 1282 l 407 1035 l 663 1035 l 847 1282 l 618 1282 l 535 1157 l 451 1282 z "},"ň":{"ha":947,"x_min":0,"x_max":0,"o":"m 76 0 l 389 0 l 389 376 b 489 499 389 450 428 499 b 579 394 543 499 579 458 l 579 0 l 892 0 l 892 485 b 619 774 892 660 779 774 b 389 651 519 774 440 729 l 389 760 l 76 760 z m 179 1068 l 364 821 l 619 821 l 804 1068 l 575 1068 l 492 943 l 408 1068 z "},"Ō":{"ha":1111,"x_min":0,"x_max":0,"o":"m 21 488 b 556 -14 21 197 246 -14 b 1090 488 865 -14 1090 199 b 556 983 1090 775 865 983 b 21 488 246 983 21 776 z m 333 1081 l 750 1081 l 750 1286 l 333 1286 z m 351 486 b 560 715 351 619 447 715 b 760 486 671 715 760 619 b 560 254 760 353 671 254 b 351 486 449 254 351 353 z "},"ō":{"ha":900,"x_min":0,"x_max":0,"o":"m 21 381 b 450 -11 21 143 189 -11 b 879 381 711 -11 879 143 b 450 771 879 618 711 771 b 21 381 189 771 21 618 z m 242 867 l 658 867 l 658 1072 l 242 1072 z m 336 376 b 450 524 336 465 381 524 b 564 376 519 524 564 465 b 450 229 564 288 519 229 b 336 376 381 229 336 288 z "},"Ő":{"ha":1111,"x_min":0,"x_max":0,"o":"m 21 488 b 556 -14 21 197 246 -14 b 1090 488 865 -14 1090 199 b 556 983 1090 775 865 983 b 21 488 246 983 21 776 z m 264 1035 l 486 1035 l 610 1224 l 385 1297 z m 351 486 b 560 715 351 619 447 715 b 760 486 671 715 760 619 b 560 254 760 353 671 254 b 351 486 449 254 351 353 z m 571 1035 l 793 1035 l 917 1224 l 692 1297 z "},"ő":{"ha":900,"x_min":0,"x_max":0,"o":"m 21 381 b 450 -11 21 143 189 -11 b 879 381 711 -11 879 143 b 450 771 879 618 711 771 b 21 381 189 771 21 618 z m 172 821 l 394 821 l 518 1010 l 293 1083 z m 336 376 b 450 524 336 465 381 524 b 564 376 519 524 564 465 b 450 229 564 288 519 229 b 336 376 381 229 336 288 z m 479 821 l 701 821 l 825 1010 l 600 1083 z "},"Œ":{"ha":1565,"x_min":0,"x_max":0,"o":"m 21 485 b 554 0 21 203 247 0 l 1513 0 l 1513 244 l 999 244 l 999 365 l 1454 365 l 1454 610 l 999 610 l 999 729 l 1500 729 l 1500 974 l 554 974 b 21 485 244 974 21 765 z m 351 483 b 554 714 351 617 436 714 l 676 714 l 676 256 l 554 254 b 351 483 436 254 351 351 z "},"œ":{"ha":1388,"x_min":0,"x_max":0,"o":"m 21 381 b 450 -11 21 143 189 -11 b 711 88 564 -11 650 25 b 967 -11 768 25 853 -11 b 1314 128 1115 -11 1232 39 l 1151 288 b 994 219 1103 243 1049 219 b 865 310 933 219 888 250 l 1365 310 b 958 771 1382 590 1225 771 b 713 671 851 771 769 735 b 450 771 653 735 564 771 b 21 381 189 771 21 618 z m 336 376 b 450 524 336 465 381 524 b 564 376 519 524 564 465 b 450 229 564 288 519 229 b 336 376 381 229 336 288 z m 858 454 b 961 563 871 518 906 563 b 1053 454 1017 563 1057 517 z "},"Ŕ":{"ha":1007,"x_min":0,"x_max":0,"o":"m 69 0 l 392 0 l 392 253 l 513 253 l 629 0 l 993 0 l 801 317 b 956 625 901 378 956 483 b 540 974 956 847 804 974 l 69 974 z m 371 1035 l 593 1035 l 783 1214 l 519 1297 z m 392 497 l 392 729 l 540 729 b 650 615 610 729 650 688 b 540 497 650 540 610 497 z "},"ŕ":{"ha":635,"x_min":0,"x_max":0,"o":"m 76 0 l 389 0 l 389 363 b 621 492 389 463 481 513 l 621 774 b 389 649 522 774 442 728 l 389 760 l 76 760 z m 194 821 l 417 821 l 607 1000 l 343 1083 z "},"Ŗ":{"ha":1007,"x_min":0,"x_max":0,"o":"m 69 0 l 392 0 l 392 253 l 513 253 l 629 0 l 993 0 l 801 317 b 956 625 901 378 956 483 b 540 974 956 847 804 974 l 69 974 z m 347 -472 l 492 -472 l 613 -297 b 650 -186 635 -265 650 -229 b 508 -46 650 -94 583 -46 b 365 -187 425 -46 365 -104 b 419 -296 365 -231 382 -271 z m 392 497 l 392 729 l 540 729 b 650 615 610 729 650 688 b 540 497 650 540 610 497 z "},"ŗ":{"ha":635,"x_min":0,"x_max":0,"o":"m 72 -472 l 217 -472 l 338 -297 b 375 -186 360 -265 375 -229 b 233 -46 375 -94 308 -46 b 90 -187 150 -46 90 -104 b 144 -296 90 -231 107 -271 z m 76 0 l 389 0 l 389 363 b 621 492 389 463 481 513 l 621 774 b 389 649 522 774 442 728 l 389 760 l 76 760 z "},"Ř":{"ha":1007,"x_min":0,"x_max":0,"o":"m 69 0 l 392 0 l 392 253 l 513 253 l 629 0 l 993 0 l 801 317 b 956 625 901 378 956 483 b 540 974 956 847 804 974 l 69 974 z m 196 1282 l 381 1035 l 636 1035 l 821 1282 l 592 1282 l 508 1157 l 425 1282 z m 392 497 l 392 729 l 540 729 b 650 615 610 729 650 688 b 540 497 650 540 610 497 z "},"ř":{"ha":635,"x_min":0,"x_max":0,"o":"m 19 1068 l 204 821 l 460 821 l 644 1068 l 415 1068 l 332 943 l 249 1068 z m 76 0 l 389 0 l 389 363 b 621 492 389 463 481 513 l 621 774 b 389 649 522 774 442 728 l 389 760 l 76 760 z "},"Ś":{"ha":922,"x_min":0,"x_max":0,"o":"m 11 146 b 499 -10 140 47 329 -10 b 908 303 718 -10 908 86 b 404 701 908 656 404 579 b 464 742 404 731 428 742 b 799 628 549 742 700 682 l 915 872 b 492 988 806 942 646 988 b 75 671 239 988 75 865 b 579 286 75 329 579 413 b 501 236 579 251 549 236 b 131 388 403 236 231 304 z m 353 1035 l 575 1035 l 765 1214 l 501 1297 z "},"ś":{"ha":767,"x_min":0,"x_max":0,"o":"m 17 94 b 388 -14 122 22 247 -14 b 732 244 597 -14 732 88 b 338 543 732 500 338 472 b 381 568 338 558 354 568 b 638 485 439 568 525 540 l 740 678 b 388 774 626 742 508 774 b 53 511 185 774 53 671 b 439 217 53 254 439 283 b 392 194 439 203 421 194 b 111 289 307 194 213 226 z m 256 821 l 478 821 l 668 1000 l 404 1083 z "},"Ş":{"ha":922,"x_min":0,"x_max":0,"o":"m 11 146 b 421 -6 121 63 274 8 l 365 -112 b 417 -106 383 -108 404 -106 b 476 -153 453 -106 476 -124 b 424 -199 476 -181 456 -199 b 367 -171 403 -199 381 -187 l 311 -296 b 451 -343 354 -325 410 -343 b 647 -186 571 -343 647 -282 b 556 -71 647 -136 611 -90 l 592 -4 b 908 303 769 21 908 118 b 404 701 908 656 404 579 b 464 742 404 731 428 742 b 799 628 549 742 700 682 l 915 872 b 492 988 806 942 646 988 b 75 671 239 988 75 865 b 579 286 75 329 579 413 b 501 236 579 251 549 236 b 131 388 403 236 231 304 z "},"ş":{"ha":767,"x_min":0,"x_max":0,"o":"m 17 94 b 321 -11 106 33 207 -1 l 268 -112 b 319 -106 286 -108 307 -106 b 379 -153 356 -106 379 -124 b 326 -199 379 -181 358 -199 b 269 -171 306 -199 283 -187 l 214 -296 b 354 -343 257 -325 313 -343 b 550 -186 474 -343 550 -282 b 458 -71 550 -136 514 -90 l 494 -4 b 732 244 642 25 732 117 b 338 543 732 500 338 472 b 381 568 338 558 354 568 b 638 485 439 568 525 540 l 740 678 b 388 774 626 742 508 774 b 53 511 185 774 53 671 b 439 217 53 254 439 283 b 392 194 439 203 421 194 b 111 289 307 194 213 226 z "},"Š":{"ha":922,"x_min":0,"x_max":0,"o":"m 11 146 b 499 -10 140 47 329 -10 b 908 303 718 -10 908 86 b 404 701 908 656 404 579 b 464 742 404 731 428 742 b 799 628 549 742 700 682 l 915 872 b 492 988 806 942 646 988 b 75 671 239 988 75 865 b 579 286 75 329 579 413 b 501 236 579 251 549 236 b 131 388 403 236 231 304 z m 178 1282 l 363 1035 l 618 1035 l 803 1282 l 574 1282 l 490 1157 l 407 1282 z "},"š":{"ha":767,"x_min":0,"x_max":0,"o":"m 17 94 b 388 -14 122 22 247 -14 b 732 244 597 -14 732 88 b 338 543 732 500 338 472 b 381 568 338 558 354 568 b 638 485 439 568 525 540 l 740 678 b 388 774 626 742 508 774 b 53 511 185 774 53 671 b 439 217 53 254 439 283 b 392 194 439 203 421 194 b 111 289 307 194 213 226 z m 81 1068 l 265 821 l 521 821 l 706 1068 l 476 1068 l 393 943 l 310 1068 z "},"Ţ":{"ha":890,"x_min":0,"x_max":0,"o":"m 7 719 l 283 719 l 283 0 l 374 0 l 315 -112 b 367 -106 333 -108 354 -106 b 426 -153 403 -106 426 -124 b 374 -199 426 -181 406 -199 b 317 -171 353 -199 331 -187 l 261 -296 b 401 -343 304 -325 360 -343 b 597 -186 521 -343 597 -282 b 506 -71 597 -136 561 -90 l 543 0 l 606 0 l 606 719 l 883 719 l 883 974 l 7 974 z "},"ţ":{"ha":639,"x_min":0,"x_max":0,"o":"m 11 521 l 115 521 l 115 244 b 319 -6 115 113 193 21 l 264 -112 b 315 -106 282 -108 303 -106 b 375 -153 351 -106 375 -124 b 322 -199 375 -181 354 -199 b 265 -171 301 -199 279 -187 l 210 -296 b 350 -343 253 -325 308 -343 b 546 -186 469 -343 546 -282 b 454 -71 546 -136 510 -90 l 489 -7 b 618 33 539 0 586 15 l 565 247 b 488 228 536 236 506 228 b 426 292 450 226 426 251 l 426 521 l 604 521 l 604 718 l 426 718 l 426 931 l 115 931 l 115 718 l 11 718 z "},"Ť":{"ha":890,"x_min":0,"x_max":0,"o":"m 7 719 l 283 719 l 283 0 l 606 0 l 606 719 l 883 719 l 883 974 l 7 974 z m 147 1282 l 332 1035 l 588 1035 l 772 1282 l 543 1282 l 460 1157 l 376 1282 z "},"ť":{"ha":653,"x_min":0,"x_max":0,"o":"m 11 521 l 115 521 l 115 244 b 401 -14 115 86 228 -15 b 618 33 482 -14 568 4 l 565 247 b 488 228 536 236 506 228 b 426 292 450 226 426 251 l 426 521 l 604 521 l 604 718 l 426 718 l 426 931 l 115 931 l 115 718 l 11 718 z m 463 794 l 607 794 l 728 969 b 765 1081 750 1001 765 1038 b 624 1221 765 1172 699 1221 b 481 1079 540 1221 481 1163 b 535 971 481 1036 497 996 z "},"Ū":{"ha":1046,"x_min":0,"x_max":0,"o":"m 56 413 b 526 -14 56 154 243 -14 b 990 413 808 -14 990 154 l 990 974 l 668 974 l 668 413 b 528 254 668 315 607 254 b 378 413 447 254 378 317 l 378 974 l 56 974 z m 315 1081 l 732 1081 l 732 1286 l 315 1286 z "},"ū":{"ha":933,"x_min":0,"x_max":0,"o":"m 56 275 b 321 -14 56 100 165 -14 b 544 106 418 -14 494 29 l 544 0 l 857 0 l 857 760 l 544 760 l 544 383 b 451 261 544 310 508 261 b 368 365 401 261 368 301 l 368 760 l 56 760 z m 250 867 l 667 867 l 667 1072 l 250 1072 z "},"Ů":{"ha":1046,"x_min":0,"x_max":0,"o":"m 56 413 b 526 -14 56 154 243 -14 b 990 413 808 -14 990 154 l 990 974 l 668 974 l 668 413 b 528 254 668 315 607 254 b 378 413 447 254 378 317 l 378 974 l 56 974 z m 351 1190 b 524 1018 351 1094 428 1018 b 696 1190 619 1018 696 1094 b 524 1363 696 1286 619 1363 b 351 1190 428 1363 351 1286 z m 469 1190 b 524 1244 469 1221 493 1244 b 578 1190 554 1244 578 1221 b 524 1136 578 1160 554 1136 b 469 1190 493 1136 469 1160 z "},"ů":{"ha":933,"x_min":0,"x_max":0,"o":"m 56 275 b 321 -14 56 100 165 -14 b 544 106 418 -14 494 29 l 544 0 l 857 0 l 857 760 l 544 760 l 544 383 b 451 261 544 310 508 261 b 368 365 401 261 368 301 l 368 760 l 56 760 z m 286 976 b 458 804 286 881 363 804 b 631 976 554 804 631 881 b 458 1149 631 1072 554 1149 b 286 976 363 1149 286 1072 z m 404 976 b 458 1031 404 1007 428 1031 b 513 976 489 1031 513 1007 b 458 922 513 946 489 922 b 404 976 428 922 404 946 z "},"Ű":{"ha":1046,"x_min":0,"x_max":0,"o":"m 56 413 b 526 -14 56 154 243 -14 b 990 413 808 -14 990 154 l 990 974 l 668 974 l 668 413 b 528 254 668 315 607 254 b 378 413 447 254 378 317 l 378 974 l 56 974 z m 246 1035 l 468 1035 l 592 1224 l 367 1297 z m 553 1035 l 775 1035 l 899 1224 l 674 1297 z "},"ű":{"ha":933,"x_min":0,"x_max":0,"o":"m 56 275 b 321 -14 56 100 165 -14 b 544 106 418 -14 494 29 l 544 0 l 857 0 l 857 760 l 544 760 l 544 383 b 451 261 544 310 508 261 b 368 365 401 261 368 301 l 368 760 l 56 760 z m 181 821 l 403 821 l 526 1010 l 301 1083 z m 488 821 l 710 821 l 833 1010 l 608 1083 z "},"Ų":{"ha":1046,"x_min":0,"x_max":0,"o":"m 56 413 b 526 -14 56 154 243 -14 l 560 -12 b 508 -161 531 -60 508 -110 b 642 -283 508 -257 583 -283 b 808 -178 710 -283 769 -249 l 732 -89 b 681 -131 717 -115 699 -131 b 661 -110 669 -131 661 -124 b 728 19 661 -83 690 -35 b 990 413 892 82 990 222 l 990 974 l 668 974 l 668 413 b 528 254 668 315 607 254 b 378 413 447 254 378 317 l 378 974 l 56 974 z "},"ų":{"ha":931,"x_min":0,"x_max":0,"o":"m 56 275 b 328 -14 56 100 168 -14 b 558 108 428 -14 507 31 l 558 0 l 644 0 b 585 -161 611 -50 585 -104 b 718 -283 585 -257 660 -283 b 885 -178 786 -283 846 -249 l 808 -89 b 757 -131 793 -115 775 -131 b 738 -110 746 -131 738 -124 b 790 0 738 -87 760 -46 l 871 0 l 871 760 l 558 760 l 558 383 b 458 261 558 310 519 261 b 368 365 404 261 368 301 l 368 760 l 56 760 z "},"Ŵ":{"ha":1557,"x_min":0,"x_max":0,"o":"m -7 974 l 308 0 l 640 0 l 779 582 l 914 0 l 1246 0 l 1564 974 l 1235 974 l 1090 335 l 943 974 l 629 972 l 485 335 l 338 974 z m 418 1057 l 626 1057 l 703 1171 l 779 1057 l 988 1057 l 819 1282 l 586 1282 z "},"ŵ":{"ha":1357,"x_min":0,"x_max":0,"o":"m -14 760 l 261 0 l 567 0 l 679 400 l 788 0 l 1093 0 l 1371 760 l 1069 760 l 950 307 l 829 760 l 540 760 l 424 307 l 303 760 z m 394 843 l 603 843 l 679 957 l 756 843 l 964 843 l 796 1068 l 563 1068 z "},"Ŷ":{"ha":999,"x_min":0,"x_max":0,"o":"m -14 974 l 342 296 l 342 0 l 664 0 l 664 303 l 1013 974 l 692 974 l 503 599 l 307 974 z m 215 1057 l 424 1057 l 500 1171 l 576 1057 l 785 1057 l 617 1282 l 383 1282 z "},"ŷ":{"ha":867,"x_min":0,"x_max":0,"o":"m -28 -194 b 235 -283 54 -256 135 -283 b 568 -53 397 -283 504 -211 l 881 760 l 569 760 l 446 326 l 296 760 l -25 760 l 290 24 l 279 6 b 204 -33 264 -21 240 -33 b 103 11 167 -33 136 -19 z m 149 843 l 357 843 l 433 957 l 510 843 l 718 843 l 550 1068 l 317 1068 z "},"Ÿ":{"ha":999,"x_min":0,"x_max":0,"o":"m -14 974 l 342 296 l 342 0 l 664 0 l 664 303 l 1013 974 l 692 974 l 503 599 l 307 974 z m 229 1183 b 356 1057 229 1110 281 1057 b 482 1183 431 1057 482 1110 b 356 1311 482 1258 431 1311 b 229 1183 281 1311 229 1258 z m 518 1183 b 644 1057 518 1110 569 1057 b 771 1183 719 1057 771 1110 b 644 1311 771 1258 719 1311 b 518 1183 569 1311 518 1258 z "},"Ź":{"ha":949,"x_min":0,"x_max":0,"o":"m 28 0 l 921 0 l 921 247 l 457 247 l 911 772 l 911 974 l 44 974 l 44 726 l 482 726 l 28 201 z m 357 1035 l 579 1035 l 769 1214 l 506 1297 z "},"ź":{"ha":789,"x_min":0,"x_max":0,"o":"m 35 0 l 760 0 l 760 233 l 429 233 l 746 578 l 746 760 l 49 760 l 49 526 l 351 526 l 35 182 z m 249 821 l 471 821 l 661 1000 l 397 1083 z "},"Ż":{"ha":949,"x_min":0,"x_max":0,"o":"m 28 0 l 921 0 l 921 247 l 457 247 l 911 772 l 911 974 l 44 974 l 44 726 l 482 726 l 28 201 z m 344 1190 b 503 1032 344 1097 410 1032 b 661 1190 596 1032 661 1097 b 503 1349 661 1283 596 1349 b 344 1190 410 1349 344 1283 z "},"ż":{"ha":789,"x_min":0,"x_max":0,"o":"m 35 0 l 760 0 l 760 233 l 429 233 l 746 578 l 746 760 l 49 760 l 49 526 l 351 526 l 35 182 z m 236 976 b 394 818 236 883 301 818 b 553 976 488 818 553 883 b 394 1135 553 1069 488 1135 b 236 976 301 1135 236 1069 z "},"Ž":{"ha":949,"x_min":0,"x_max":0,"o":"m 28 0 l 921 0 l 921 247 l 457 247 l 911 772 l 911 974 l 44 974 l 44 726 l 482 726 l 28 201 z m 182 1282 l 367 1035 l 622 1035 l 807 1282 l 578 1282 l 494 1157 l 411 1282 z "},"ž":{"ha":789,"x_min":0,"x_max":0,"o":"m 35 0 l 760 0 l 760 233 l 429 233 l 746 578 l 746 760 l 49 760 l 49 526 l 351 526 l 35 182 z m 74 1068 l 258 821 l 514 821 l 699 1068 l 469 1068 l 386 943 l 303 1068 z "},"ƒ":{"ha":617,"x_min":0,"x_max":0,"o":"m -149 -229 b 38 -283 -106 -262 -29 -283 b 371 -25 221 -285 351 -183 l 429 451 l 576 451 l 600 649 l 453 649 l 464 739 b 544 803 469 779 500 804 b 618 776 567 803 596 793 l 721 990 b 492 1044 665 1024 575 1044 b 160 786 310 1046 179 944 l 143 649 l 38 649 l 14 451 l 118 451 l 65 22 b -1 -42 60 -18 35 -43 b -74 -15 -24 -42 -53 -32 z "},"Ș":{"ha":922,"x_min":0,"x_max":0,"o":"m 11 146 b 499 -10 140 47 329 -10 b 908 303 718 -10 908 86 b 404 701 908 656 404 579 b 464 742 404 731 428 742 b 799 628 549 742 700 682 l 915 872 b 492 988 806 942 646 988 b 75 671 239 988 75 865 b 579 286 75 329 579 413 b 501 236 579 251 549 236 b 131 388 403 236 231 304 z m 328 -472 l 472 -472 l 593 -297 b 631 -186 615 -265 631 -229 b 489 -46 631 -94 564 -46 b 346 -187 406 -46 346 -104 b 400 -296 346 -231 363 -271 z "},"ș":{"ha":767,"x_min":0,"x_max":0,"o":"m 17 94 b 388 -14 122 22 247 -14 b 732 244 597 -14 732 88 b 338 543 732 500 338 472 b 381 568 338 558 354 568 b 638 485 439 568 525 540 l 740 678 b 388 774 626 742 508 774 b 53 511 185 774 53 671 b 439 217 53 254 439 283 b 392 194 439 203 421 194 b 111 289 307 194 213 226 z m 231 -472 l 375 -472 l 496 -297 b 533 -186 518 -265 533 -229 b 392 -46 533 -94 467 -46 b 249 -187 308 -46 249 -104 b 303 -296 249 -231 265 -271 z "},"Ț":{"ha":890,"x_min":0,"x_max":0,"o":"m 7 719 l 283 719 l 283 0 l 606 0 l 606 719 l 883 719 l 883 974 l 7 974 z m 278 -472 l 422 -472 l 543 -297 b 581 -186 565 -265 581 -229 b 439 -46 581 -94 514 -46 b 296 -187 356 -46 296 -104 b 350 -296 296 -231 313 -271 z "},"ț":{"ha":639,"x_min":0,"x_max":0,"o":"m 11 521 l 115 521 l 115 244 b 401 -14 115 86 228 -15 b 618 33 482 -14 568 4 l 565 247 b 488 228 536 236 506 228 b 426 292 450 226 426 251 l 426 521 l 604 521 l 604 718 l 426 718 l 426 931 l 115 931 l 115 718 l 11 718 z m 226 -472 l 371 -472 l 492 -297 b 529 -186 514 -265 529 -229 b 388 -46 529 -94 463 -46 b 244 -187 304 -46 244 -104 b 299 -296 244 -231 261 -271 z "},"ȷ":{"ha":469,"x_min":0,"x_max":0,"o":"m -124 -235 b 94 -282 -64 -265 11 -282 b 396 -24 278 -283 396 -183 l 396 760 l 83 760 l 83 24 b 22 -40 83 -19 61 -42 b -54 -21 -3 -40 -28 -33 z "},"ˆ":{"ha":486,"x_min":0,"x_max":0,"o":"m -42 843 l 167 843 l 243 957 l 319 843 l 528 843 l 360 1068 l 126 1068 z "},"ˇ":{"ha":486,"x_min":0,"x_max":0,"o":"m -69 1068 l 115 821 l 371 821 l 556 1068 l 326 1068 l 243 943 l 160 1068 z "},"ˉ":{"ha":486,"x_min":0,"x_max":0,"o":"m 35 867 l 451 867 l 451 1072 l 35 1072 z "},"˘":{"ha":486,"x_min":0,"x_max":0,"o":"m -12 1068 b 243 826 -6 921 94 826 b 499 1068 392 826 492 921 l 311 1068 b 243 999 307 1026 281 999 b 175 1068 206 999 179 1026 z "},"˙":{"ha":486,"x_min":0,"x_max":0,"o":"m 85 976 b 243 818 85 883 150 818 b 401 976 336 818 401 883 b 243 1135 401 1069 336 1135 b 85 976 150 1135 85 1069 z "},"˚":{"ha":486,"x_min":0,"x_max":0,"o":"m 71 976 b 243 804 71 881 147 804 b 415 976 339 804 415 881 b 243 1149 415 1072 339 1149 b 71 976 147 1149 71 1072 z m 189 976 b 243 1031 189 1007 213 1031 b 297 976 274 1031 297 1007 b 243 922 297 946 274 922 b 189 976 213 922 189 946 z "},"˛":{"ha":486,"x_min":0,"x_max":0,"o":"m 96 -161 b 229 -283 96 -257 171 -283 b 396 -178 297 -283 357 -249 l 319 -89 b 268 -131 304 -115 286 -131 b 249 -110 257 -131 249 -124 b 325 33 249 -82 282 -26 l 179 33 b 96 -161 136 -24 96 -92 z "},"˜":{"ha":486,"x_min":0,"x_max":0,"o":"m -26 853 l 163 853 b 194 906 163 889 172 906 b 351 850 228 906 264 850 b 513 1103 461 850 513 931 l 325 1103 b 292 1051 325 1068 315 1051 b 136 1107 260 1051 222 1107 b -26 853 26 1107 -26 1026 z "},"˝":{"ha":486,"x_min":0,"x_max":0,"o":"m -83 821 l 139 821 l 263 1010 l 38 1083 z m 224 821 l 446 821 l 569 1010 l 344 1083 z "},"̦":{"ha":0,"x_min":0,"x_max":0,"o":"m 25 -472 l 169 -472 l 290 -297 b 328 -186 313 -265 328 -229 b 186 -46 328 -94 261 -46 b 43 -187 103 -46 43 -104 b 97 -296 43 -231 60 -271 z "},"Δ":{"ha":1110,"x_min":0,"x_max":0,"o":"m -14 0 l 1124 0 l 728 974 l 397 974 z m 400 231 l 553 653 l 700 231 z "},"π":{"ha":1018,"x_min":0,"x_max":0,"o":"m -31 539 b 22 328 -31 475 -8 392 l 236 400 b 211 486 222 429 211 465 b 269 543 210 519 235 543 l 288 543 l 232 0 l 489 0 l 544 543 l 596 543 l 596 0 l 853 0 l 853 543 l 1000 543 l 999 760 l 228 760 b -31 539 76 760 -32 667 z "},"Ẁ":{"ha":1557,"x_min":0,"x_max":0,"o":"m -7 974 l 308 0 l 640 0 l 779 582 l 914 0 l 1246 0 l 1564 974 l 1235 974 l 1090 335 l 943 974 l 629 972 l 485 335 l 338 974 z m 446 1214 l 636 1035 l 858 1035 l 710 1297 z "},"ẁ":{"ha":1357,"x_min":0,"x_max":0,"o":"m -14 760 l 261 0 l 567 0 l 679 400 l 788 0 l 1093 0 l 1371 760 l 1069 760 l 950 307 l 829 760 l 540 760 l 424 307 l 303 760 z m 422 1000 l 613 821 l 835 821 l 686 1083 z "},"Ẃ":{"ha":1557,"x_min":0,"x_max":0,"o":"m -7 974 l 308 0 l 640 0 l 779 582 l 914 0 l 1246 0 l 1564 974 l 1235 974 l 1090 335 l 943 974 l 629 972 l 485 335 l 338 974 z m 557 1035 l 779 1035 l 969 1214 l 706 1297 z "},"ẃ":{"ha":1357,"x_min":0,"x_max":0,"o":"m -14 760 l 261 0 l 567 0 l 679 400 l 788 0 l 1093 0 l 1371 760 l 1069 760 l 950 307 l 829 760 l 540 760 l 424 307 l 303 760 z m 533 821 l 756 821 l 946 1000 l 682 1083 z "},"Ẅ":{"ha":1557,"x_min":0,"x_max":0,"o":"m -7 974 l 308 0 l 640 0 l 779 582 l 914 0 l 1246 0 l 1564 974 l 1235 974 l 1090 335 l 943 974 l 629 972 l 485 335 l 338 974 z m 432 1183 b 558 1057 432 1110 483 1057 b 685 1183 633 1057 685 1110 b 558 1311 685 1258 633 1311 b 432 1183 483 1311 432 1258 z m 721 1183 b 847 1057 721 1110 772 1057 b 974 1183 922 1057 974 1110 b 847 1311 974 1258 922 1311 b 721 1183 772 1311 721 1258 z "},"ẅ":{"ha":1357,"x_min":0,"x_max":0,"o":"m -14 760 l 261 0 l 567 0 l 679 400 l 788 0 l 1093 0 l 1371 760 l 1069 760 l 950 307 l 829 760 l 540 760 l 424 307 l 303 760 z m 408 969 b 535 843 408 896 460 843 b 661 969 610 843 661 896 b 535 1097 661 1044 610 1097 b 408 969 460 1097 408 1044 z m 697 969 b 824 843 697 896 749 843 b 950 969 899 843 950 896 b 824 1097 950 1044 899 1097 b 697 969 749 1097 697 1044 z "},"Ỳ":{"ha":999,"x_min":0,"x_max":0,"o":"m -14 974 l 342 296 l 342 0 l 664 0 l 664 303 l 1013 974 l 692 974 l 503 599 l 307 974 z m 243 1214 l 433 1035 l 656 1035 l 507 1297 z "},"ỳ":{"ha":867,"x_min":0,"x_max":0,"o":"m -28 -194 b 235 -283 54 -256 135 -283 b 568 -53 397 -283 504 -211 l 881 760 l 569 760 l 446 326 l 296 760 l -25 760 l 290 24 l 279 6 b 204 -33 264 -21 240 -33 b 103 11 167 -33 136 -19 z m 176 1000 l 367 821 l 589 821 l 440 1083 z "},"–":{"ha":569,"x_min":0,"x_max":0,"o":"m 0 290 l 569 290 l 569 485 l 0 485 z "},"—":{"ha":847,"x_min":0,"x_max":0,"o":"m 0 290 l 847 290 l 847 485 l 0 485 z "},"‘":{"ha":368,"x_min":0,"x_max":0,"o":"m 25 688 b 167 547 25 596 92 547 b 310 689 250 547 310 606 b 256 797 310 732 293 772 l 328 974 l 183 974 l 63 799 b 25 688 40 767 25 731 z "},"’":{"ha":368,"x_min":0,"x_max":0,"o":"m 25 547 l 169 547 l 290 722 b 328 833 313 754 328 790 b 186 974 328 925 261 974 b 43 832 103 974 43 915 b 97 724 43 789 60 749 z "},"‚":{"ha":368,"x_min":0,"x_max":0,"o":"m 25 -153 l 169 -153 l 290 22 b 328 133 313 54 328 90 b 186 274 328 225 261 274 b 43 132 103 274 43 215 b 97 24 43 89 60 49 z "},"“":{"ha":671,"x_min":0,"x_max":0,"o":"m 25 688 b 167 547 25 596 92 547 b 310 689 250 547 310 606 b 256 797 310 732 293 772 l 328 974 l 183 974 l 63 799 b 25 688 40 767 25 731 z m 328 688 b 469 547 328 596 394 547 b 613 689 553 547 613 606 b 558 797 613 732 596 772 l 631 974 l 486 974 l 365 799 b 328 688 343 767 328 731 z "},"”":{"ha":671,"x_min":0,"x_max":0,"o":"m 25 547 l 169 547 l 290 722 b 328 833 313 754 328 790 b 186 974 328 925 261 974 b 43 832 103 974 43 915 b 97 724 43 789 60 749 z m 328 547 l 472 547 l 593 722 b 631 833 615 754 631 790 b 489 974 631 925 564 974 b 346 832 406 974 346 915 b 400 724 346 789 363 749 z "},"„":{"ha":671,"x_min":0,"x_max":0,"o":"m 25 -153 l 169 -153 l 290 22 b 328 133 313 54 328 90 b 186 274 328 225 261 274 b 43 132 103 274 43 215 b 97 24 43 89 60 49 z m 328 -153 l 472 -153 l 593 22 b 631 133 615 54 631 90 b 489 274 631 225 564 274 b 346 132 406 274 346 215 b 400 24 346 89 363 49 z "},"†":{"ha":844,"x_min":0,"x_max":0,"o":"m 28 454 l 261 454 l 261 -257 l 574 -257 l 574 454 l 817 454 l 817 699 l 574 699 l 574 971 l 261 971 l 261 699 l 28 699 z "},"‡":{"ha":844,"x_min":0,"x_max":0,"o":"m 28 24 l 261 24 l 261 -257 l 574 -257 l 574 24 l 817 24 l 817 268 l 574 268 l 574 454 l 817 454 l 817 699 l 574 699 l 574 971 l 261 971 l 261 699 l 28 699 l 28 454 l 261 454 l 261 268 l 28 268 z "},"•":{"ha":511,"x_min":0,"x_max":0,"o":"m 42 394 b 254 179 42 267 129 179 b 469 394 382 179 469 267 b 254 607 469 519 382 607 b 42 394 129 607 42 519 z "},"…":{"ha":1035,"x_min":0,"x_max":0,"o":"m 42 132 b 183 -11 42 47 100 -11 b 326 132 268 -11 326 47 b 183 274 326 215 268 274 b 42 132 100 274 42 215 z m 375 132 b 517 -11 375 47 433 -11 b 660 132 601 -11 660 47 b 517 274 660 215 601 274 b 375 132 433 274 375 215 z m 708 132 b 850 -11 708 47 767 -11 b 993 132 935 -11 993 47 b 850 274 993 215 935 274 b 708 132 767 274 708 215 z "},"‰":{"ha":2121,"x_min":0,"x_max":0,"o":"m 35 682 b 319 382 35 500 147 382 b 603 682 492 382 603 500 b 319 979 603 863 492 979 b 35 682 147 979 35 863 z m 231 682 b 319 815 231 763 265 815 b 408 682 374 815 408 763 b 319 547 408 600 374 547 b 231 682 265 547 231 600 z m 258 0 l 549 0 l 1225 974 l 935 974 z m 881 293 b 1165 -7 881 111 993 -7 b 1449 293 1338 -7 1449 111 b 1165 590 1449 474 1338 590 b 881 293 993 590 881 474 z m 1076 293 b 1165 426 1076 374 1111 426 b 1254 293 1219 426 1254 374 b 1165 158 1254 211 1219 158 b 1076 293 1111 158 1076 211 z m 1518 293 b 1803 -7 1518 111 1631 -7 b 2086 293 1975 -7 2086 111 b 1803 590 2086 474 1975 590 b 1518 293 1631 590 1518 474 z m 1714 293 b 1803 426 1714 374 1749 426 b 1892 293 1857 426 1892 374 b 1803 158 1892 211 1857 158 b 1714 293 1749 158 1714 211 z "},"‹":{"ha":396,"x_min":0,"x_max":0,"o":"m -24 379 l 149 108 l 399 108 l 251 379 l 399 647 l 149 647 z "},"›":{"ha":396,"x_min":0,"x_max":0,"o":"m -3 108 l 247 108 l 419 376 l 247 647 l -3 647 l 144 376 z "},"⁄":{"ha":208,"x_min":0,"x_max":0,"o":"m -379 0 l -89 0 l 588 974 l 297 974 z "},"€":{"ha":1075,"x_min":0,"x_max":0,"o":"m 28 346 l 160 346 b 656 -14 218 132 408 -14 b 1079 181 806 -14 971 63 l 893 379 b 672 268 829 311 742 268 b 517 346 607 268 553 297 l 794 346 l 794 460 l 472 460 b 471 493 471 471 471 482 b 472 524 471 504 471 514 l 794 524 l 794 636 l 514 636 b 672 715 550 686 606 715 b 893 585 747 715 835 664 l 1079 806 b 668 983 979 914 817 983 b 161 636 418 983 224 843 l 28 636 l 28 524 l 142 524 b 140 489 140 513 140 500 l 142 460 l 28 460 z "},"ℓ":{"ha":664,"x_min":0,"x_max":0,"o":"m -10 268 l 31 149 l 90 182 b 306 -10 108 61 176 -10 b 610 182 415 -10 524 42 l 525 288 b 372 185 488 242 436 185 b 306 306 324 185 292 215 b 631 788 413 394 631 558 b 450 988 631 911 567 988 b 158 649 315 988 200 886 l 108 347 z m 342 515 l 368 676 b 442 836 388 796 414 836 b 469 783 463 836 469 813 b 342 515 469 676 385 569 z "},"™":{"ha":1279,"x_min":0,"x_max":0,"o":"m -15 796 l 125 796 l 125 389 l 349 389 l 349 796 l 490 796 l 490 974 l -15 974 z m 532 389 l 732 389 l 732 656 l 807 444 l 961 444 l 1036 656 l 1036 389 l 1236 389 l 1236 974 l 994 974 l 883 707 l 774 974 l 532 974 z "},"Ω":{"ha":1157,"x_min":0,"x_max":0,"o":"m 7 0 l 514 0 l 514 231 b 363 515 426 297 363 418 b 578 728 363 639 454 728 b 794 515 703 728 794 639 b 643 231 794 418 731 297 l 643 0 l 1150 0 l 1150 250 l 950 250 b 1079 543 1025 322 1079 446 b 578 990 1079 801 868 990 b 78 543 289 990 78 801 b 208 250 78 444 133 321 l 7 250 z "},"℮":{"ha":1124,"x_min":0,"x_max":0,"o":"m 97 443 b 563 25 97 213 306 25 b 931 188 711 25 847 90 l 863 188 b 564 50 792 104 683 50 b 278 174 451 50 349 97 b 267 200 272 181 267 189 l 267 428 b 274 433 267 432 269 433 l 1028 433 l 1028 443 b 563 863 1028 675 819 863 b 97 443 306 863 97 675 z m 267 463 l 267 688 b 279 715 267 699 272 708 b 564 838 351 790 451 838 b 846 719 674 838 774 792 b 858 692 853 713 858 703 l 858 463 b 851 456 858 458 856 456 l 274 456 b 267 463 269 456 267 458 z "},"⅛":{"ha":1319,"x_min":0,"x_max":0,"o":"m 6 808 l 111 808 l 111 389 l 328 389 l 328 974 l 6 974 z m 115 0 l 406 0 l 1082 974 l 792 974 z m 756 163 b 1025 -10 756 60 861 -10 b 1294 167 1189 -10 1294 60 b 1200 313 1294 225 1257 283 b 1261 428 1236 340 1261 386 b 1024 593 1261 528 1168 593 b 789 435 882 593 789 531 b 861 313 789 392 818 343 b 756 163 797 283 756 224 z m 961 185 b 1025 231 961 215 982 231 b 1090 185 1068 231 1090 215 b 1025 140 1090 154 1068 140 b 961 185 982 140 961 154 z m 971 417 b 1025 458 971 444 989 458 b 1079 417 1061 458 1079 444 b 1025 379 1079 392 1061 379 b 971 417 989 379 971 392 z "},"⅜":{"ha":1400,"x_min":0,"x_max":0,"o":"m -1 460 b 251 379 58 411 157 379 b 500 575 403 379 500 461 b 372 738 500 663 444 719 l 346 744 l 472 854 l 472 971 l 31 971 l 31 821 l 228 821 l 119 726 l 119 618 l 233 618 b 288 575 269 618 288 604 b 233 533 288 546 269 533 b 85 618 181 533 131 561 z m 196 0 l 486 0 l 1163 974 l 872 974 z m 836 163 b 1106 -10 836 60 942 -10 b 1375 167 1269 -10 1375 60 b 1281 313 1375 225 1338 283 b 1342 428 1317 340 1342 386 b 1104 593 1342 528 1249 593 b 869 435 963 593 869 531 b 942 313 869 392 899 343 b 836 163 878 283 836 224 z m 1042 185 b 1106 231 1042 215 1063 231 b 1171 185 1149 231 1171 215 b 1106 140 1171 154 1149 140 b 1042 185 1063 140 1042 154 z m 1051 417 b 1106 458 1051 444 1069 458 b 1160 417 1142 458 1160 444 b 1106 379 1160 392 1142 379 b 1051 417 1069 379 1051 392 z "},"⅝":{"ha":1417,"x_min":0,"x_max":0,"o":"m 6 458 b 264 379 74 411 175 379 b 528 589 424 379 528 463 b 281 765 528 697 431 765 b 261 768 279 765 263 767 l 261 814 l 499 814 l 499 974 l 63 974 l 63 617 l 90 615 z m 93 615 l 236 614 b 293 575 275 614 293 601 b 238 533 293 546 275 533 b 93 615 183 533 136 560 z m 213 0 l 503 0 l 1179 974 l 889 974 z m 853 163 b 1122 -10 853 60 958 -10 b 1392 167 1286 -10 1392 60 b 1297 313 1392 225 1354 283 b 1358 428 1333 340 1358 386 b 1121 593 1358 528 1265 593 b 886 435 979 593 886 531 b 958 313 886 392 915 343 b 853 163 894 283 853 224 z m 1058 185 b 1122 231 1058 215 1079 231 b 1188 185 1165 231 1188 215 b 1122 140 1188 154 1165 140 b 1058 185 1079 140 1058 154 z m 1068 417 b 1122 458 1068 444 1086 458 b 1176 417 1158 458 1176 444 b 1122 379 1176 392 1158 379 b 1068 417 1086 379 1068 392 z "},"⅞":{"ha":1382,"x_min":0,"x_max":0,"o":"m 31 733 l 221 733 l 221 814 l 306 814 l 110 389 l 339 389 l 546 835 l 546 974 l 31 974 z m 178 0 l 468 0 l 1144 974 l 854 974 z m 818 163 b 1088 -10 818 60 924 -10 b 1357 167 1251 -10 1357 60 b 1263 313 1357 225 1319 283 b 1324 428 1299 340 1324 386 b 1086 593 1324 528 1231 593 b 851 435 944 593 851 531 b 924 313 851 392 881 343 b 818 163 860 283 818 224 z m 1024 185 b 1088 231 1024 215 1044 231 b 1153 185 1131 231 1153 215 b 1088 140 1153 154 1131 140 b 1024 185 1044 140 1024 154 z m 1033 417 b 1088 458 1033 444 1051 458 b 1142 417 1124 458 1142 444 b 1088 379 1142 392 1124 379 b 1033 417 1051 379 1033 392 z "},"∂":{"ha":900,"x_min":0,"x_max":0,"o":"m 28 329 b 410 -14 28 119 181 -14 b 851 490 685 -14 851 183 b 389 988 851 792 669 988 b 39 888 264 988 128 949 l 161 663 b 369 740 218 715 288 740 b 544 578 485 740 544 686 b 357 650 506 618 444 650 b 28 329 158 650 28 519 z m 326 331 b 419 417 326 388 357 417 b 517 329 483 417 517 388 b 421 242 517 271 485 242 b 326 331 358 242 326 271 z "},"∏":{"ha":1019,"x_min":0,"x_max":0,"o":"m 69 -269 l 382 -269 l 382 786 l 638 786 l 638 -269 l 950 -269 l 950 1031 l 69 1031 z "},"∑":{"ha":863,"x_min":0,"x_max":0,"o":"m 32 28 l 32 -192 l 851 -192 l 851 76 l 422 76 l 700 417 l 422 767 l 838 767 l 838 1035 l 50 1035 l 50 810 l 360 415 z "},"−":{"ha":722,"x_min":0,"x_max":0,"o":"m 42 360 l 681 360 l 681 554 l 42 554 z "},"∕":{"ha":518,"x_min":0,"x_max":0,"o":"m -69 -144 l 192 -144 l 649 1119 l 388 1119 z "},"∙":{"ha":511,"x_min":0,"x_max":0,"o":"m 42 394 b 254 179 42 267 129 179 b 469 394 382 179 469 267 b 254 607 469 519 382 607 b 42 394 129 607 42 519 z "},"√":{"ha":1007,"x_min":0,"x_max":0,"o":"m -8 336 l 171 336 l 343 -224 l 676 -224 l 1042 1031 l 744 1031 l 511 86 l 385 581 l -8 581 z "},"∞":{"ha":1160,"x_min":0,"x_max":0,"o":"m 21 411 b 317 96 21 229 146 96 b 582 251 450 96 525 168 b 842 96 640 168 714 96 b 1139 413 1014 96 1139 229 b 842 728 1139 594 1014 728 b 576 572 708 728 633 656 b 317 728 518 656 444 728 b 21 411 146 728 21 594 z m 229 411 b 317 519 229 474 267 519 b 479 414 389 519 438 475 b 317 304 438 351 390 304 b 229 411 267 304 229 349 z m 679 410 b 842 519 721 472 768 519 b 931 413 893 519 931 475 b 842 304 931 350 893 304 b 679 410 769 304 722 349 z "},"∫":{"ha":603,"x_min":0,"x_max":0,"o":"m -42 -164 b 133 -206 6 -194 56 -206 b 442 174 356 -206 442 -100 b 403 847 442 285 403 751 b 518 979 403 943 435 979 b 603 963 544 979 568 975 l 631 1160 b 479 1194 574 1185 532 1194 b 174 818 258 1194 174 1090 b 215 151 174 717 215 263 b 93 6 215 46 181 6 b -7 35 64 6 36 14 z "},"≈":{"ha":722,"x_min":0,"x_max":0,"o":"m 65 146 l 272 146 b 308 203 272 185 283 203 b 481 142 344 203 385 142 b 657 421 601 142 657 231 l 451 421 b 415 364 451 382 440 364 b 243 425 379 364 339 425 b 65 146 122 425 65 336 z m 65 479 l 272 479 b 308 536 272 518 283 536 b 481 475 344 536 385 475 b 657 754 601 475 657 564 l 451 754 b 415 697 451 715 440 697 b 243 758 379 697 339 758 b 65 479 122 758 65 669 z "},"≠":{"ha":722,"x_min":0,"x_max":0,"o":"m 42 207 l 161 207 l 101 18 l 335 18 l 394 207 l 681 207 l 681 401 l 456 401 l 490 513 l 681 513 l 681 707 l 551 707 l 608 889 l 375 889 l 318 707 l 42 707 l 42 513 l 257 513 l 222 401 l 42 401 z "},"≤":{"ha":722,"x_min":0,"x_max":0,"o":"m 42 -22 l 681 -22 l 681 172 l 42 172 z m 42 446 l 681 203 l 681 408 l 242 564 l 681 719 l 681 925 l 42 681 z "},"≥":{"ha":722,"x_min":0,"x_max":0,"o":"m 42 -22 l 681 -22 l 681 172 l 42 172 z m 42 215 l 681 460 l 681 694 l 42 939 l 42 732 l 481 576 l 42 421 z "},"◊":{"ha":669,"x_min":0,"x_max":0,"o":"m 21 458 l 333 -12 l 649 458 l 336 925 z m 219 458 l 335 629 l 450 458 l 335 285 z "},"ﬁ":{"ha":1057,"x_min":0,"x_max":0,"o":"m 28 535 l 132 535 l 132 0 l 443 0 l 443 535 l 590 535 l 590 732 l 443 732 l 443 739 b 515 803 443 779 471 804 b 592 776 538 803 568 793 l 601 1022 b 447 1044 563 1036 501 1044 b 132 786 256 1046 132 944 l 132 732 l 28 732 z m 667 976 b 825 818 667 883 732 818 b 983 976 918 818 983 883 b 825 1135 983 1069 918 1135 b 667 976 732 1135 667 1069 z m 668 0 l 981 0 l 981 760 l 668 760 z "},"ﬂ":{"ha":1071,"x_min":0,"x_max":0,"o":"m 28 535 l 132 535 l 132 0 l 443 0 l 443 535 l 590 535 l 590 732 l 443 732 l 443 739 b 515 803 443 779 471 804 b 592 776 538 803 568 793 l 601 1022 b 447 1044 563 1036 501 1044 b 132 786 256 1046 132 944 l 132 732 l 28 732 z m 675 0 l 988 0 l 988 1031 l 675 1031 z "}}}
